<svg width="24" height="24" viewBox="0 0 24 24" fill="none" xmlns="http://www.w3.org/2000/svg">
<g clip-path="url(#clip0_273_668)">
<path d="M22.9777 8.84797C23.1062 8.99044 23.1041 9.20761 22.9728 9.34754L12.0432 21V4H16.6117C16.6408 4 16.6698 4.00344 16.6981 4.01026L19.0351 4.57324C19.1074 4.59067 19.1728 4.62957 19.2227 4.68483L22.9777 8.84797Z" fill="url(#paint0_radial_273_668)"/>
<path d="M1.10867 8.84797C0.980166 8.99044 0.982284 9.20761 1.11354 9.34754L12.0432 21V4H7.47467C7.44556 4 7.41655 4.00344 7.38825 4.01026L5.05126 4.57324C4.97891 4.59067 4.91352 4.62957 4.86368 4.68483L1.10867 8.84797Z" fill="url(#paint1_radial_273_668)"/>
<g filter="url(#filter0_i_273_668)">
<path d="M17.3935 10.7998L12.0432 20.6998L6.69287 10.7998H17.3935Z" fill="url(#paint2_radial_273_668)"/>
</g>
<g filter="url(#filter1_i_273_668)">
<path d="M22.8359 9.2002L12.1353 20.8002L17.8545 10.7002L22.8359 9.2002Z" fill="url(#paint3_radial_273_668)"/>
</g>
<g filter="url(#filter2_i_273_668)">
<path d="M1.15784 9L11.9507 20.8L6.2314 10.7L1.15784 9Z" fill="url(#paint4_radial_273_668)"/>
</g>
<path d="M17.4857 10.5H6.69287L8.7223 6L15.5485 6L17.4857 10.5Z" fill="url(#paint5_radial_273_668)"/>
<path d="M22.8359 9.2001L17.8546 10.5001L15.8252 5.9001L19.1461 5.1001L22.8359 9.2001Z" fill="url(#paint6_radial_273_668)"/>
<path d="M1.25004 9.00019L6.23136 10.3002L8.35303 5.9002L5.21665 5.2002L1.25004 9.00019Z" fill="url(#paint7_radial_273_668)"/>
<path style="mix-blend-mode:screen" d="M7.27288 11.697C8.16137 11.0461 8.26364 9.67909 7.50077 8.6461C6.73653 7.61135 5.40066 7.30301 4.51059 7.95431C3.62355 8.60706 3.5229 9.97384 4.2853 11.0052C5.0467 12.0391 6.3856 12.349 7.27288 11.697Z" fill="url(#paint8_radial_273_668)"/>
<path style="mix-blend-mode:screen" d="M1.71554 18.1337C1.86411 18.2075 4.00801 14.2006 6.50263 9.18183C8.9978 4.1648 8.58642 4.49347 9.73261 2.26247C11.0134 -0.231282 8.45664 3.89849 5.96403 8.91533C3.46772 13.9342 1.56542 18.0606 1.71554 18.1337Z" fill="url(#paint9_radial_273_668)"/>
<path style="mix-blend-mode:screen" d="M14.3066 13.7931C14.3778 13.6438 10.3173 11.6009 5.23507 9.23282C0.155697 6.86293 0.492622 7.2658 -1.76658 6.17648C-4.29297 4.95821 -0.101456 7.4084 4.97792 9.77545C10.0606 12.145 14.2361 13.9446 14.3066 13.7931Z" fill="url(#paint10_radial_273_668)"/>
<path style="mix-blend-mode:screen" d="M10.2469 8.53529C10.2261 8.46476 8.25901 8.98561 5.85476 9.69749C3.45016 10.4112 1.51723 11.0474 1.53889 11.1175C1.55838 11.1892 3.52496 10.667 5.93063 9.95385C8.33512 9.24275 10.2675 8.60765 10.2469 8.53529Z" fill="url(#paint11_radial_273_668)"/>
<path style="mix-blend-mode:screen" d="M7.16856 14.1645C7.23936 14.1437 6.72554 12.1834 6.0225 9.78759C5.31678 7.39153 4.6862 5.46486 4.61566 5.48638C4.5438 5.50636 5.05907 7.46583 5.76354 9.86355C6.46661 12.2593 7.09603 14.185 7.16856 14.1645Z" fill="url(#paint12_radial_273_668)"/>
<path style="mix-blend-mode:screen" d="M8.21112 10.955C8.4165 10.5416 7.54258 9.7003 6.26098 9.07629C4.98124 8.45243 3.77671 8.28082 3.5738 8.69658C3.36944 9.1104 4.24147 9.95133 5.52284 10.5745C6.80428 11.1982 8.00897 11.3705 8.21112 10.955Z" fill="url(#paint13_radial_273_668)"/>
<path style="mix-blend-mode:screen" d="M7.22616 7.61815C6.83139 7.3799 5.91374 8.17724 5.17609 9.39675C4.43888 10.6148 4.16123 11.7969 4.55883 12.0327C4.95439 12.2708 5.87267 11.4754 6.60843 10.2556C7.34512 9.03569 7.62385 7.85439 7.22616 7.61815Z" fill="url(#paint14_radial_273_668)"/>
<path style="mix-blend-mode:screen" d="M6.9991 9.49787C6.94099 9.30157 6.39675 9.28765 5.78542 9.46928C5.17528 9.65208 4.72683 9.95891 4.78546 10.154C4.8438 10.351 5.38601 10.364 5.99837 10.1828C6.61007 10.0024 7.05665 9.69519 6.9991 9.49787Z" fill="url(#paint15_radial_273_668)"/>
<path style="mix-blend-mode:screen" d="M6.27167 10.9112C6.46641 10.8426 6.45559 10.3013 6.24496 9.70182C6.03366 9.10321 5.70611 8.67265 5.51294 8.74059C5.31792 8.80811 5.33037 9.34913 5.53933 9.94872C5.74841 10.5489 6.07659 10.9785 6.27167 10.9112Z" fill="url(#paint16_radial_273_668)"/>
<path style="mix-blend-mode:screen" d="M-0.961063 11.0899C0.0833106 14.6182 3.80076 16.6284 7.34433 15.5796C10.8865 14.5311 12.9122 10.8209 11.8679 7.29259C10.8235 3.7643 7.10471 1.75449 3.56251 2.80297C0.0189436 3.85185 -2.00541 7.56163 -0.961063 11.0899Z" fill="url(#paint17_radial_273_668)"/>
</g>
<defs>
<filter id="filter0_i_273_668" x="6.69287" y="10.7998" width="11.0697" height="10.2689" filterUnits="userSpaceOnUse" color-interpolation-filters="sRGB">
<feFlood flood-opacity="0" result="BackgroundImageFix"/>
<feBlend mode="normal" in="SourceGraphic" in2="BackgroundImageFix" result="shape"/>
<feColorMatrix in="SourceAlpha" type="matrix" values="0 0 0 0 0 0 0 0 0 0 0 0 0 0 0 0 0 0 127 0" result="hardAlpha"/>
<feOffset dx="0.368986" dy="0.368986"/>
<feGaussianBlur stdDeviation="0.184493"/>
<feComposite in2="hardAlpha" operator="arithmetic" k2="-1" k3="1"/>
<feColorMatrix type="matrix" values="0 0 0 0 0.0610232 0 0 0 0 0.0484534 0 0 0 0 0.802637 0 0 0 1 0"/>
<feBlend mode="normal" in2="shape" result="effect1_innerShadow_273_668"/>
</filter>
<filter id="filter1_i_273_668" x="11.7663" y="8.83121" width="11.0697" height="11.9691" filterUnits="userSpaceOnUse" color-interpolation-filters="sRGB">
<feFlood flood-opacity="0" result="BackgroundImageFix"/>
<feBlend mode="normal" in="SourceGraphic" in2="BackgroundImageFix" result="shape"/>
<feColorMatrix in="SourceAlpha" type="matrix" values="0 0 0 0 0 0 0 0 0 0 0 0 0 0 0 0 0 0 127 0" result="hardAlpha"/>
<feOffset dx="-0.368986" dy="-0.368986"/>
<feGaussianBlur stdDeviation="0.368986"/>
<feComposite in2="hardAlpha" operator="arithmetic" k2="-1" k3="1"/>
<feColorMatrix type="matrix" values="0 0 0 0 0.0117647 0 0 0 0 0.231373 0 0 0 0 0.792157 0 0 0 1 0"/>
<feBlend mode="normal" in2="shape" result="effect1_innerShadow_273_668"/>
</filter>
<filter id="filter2_i_273_668" x="0.788973" y="8.63101" width="11.1617" height="12.1688" filterUnits="userSpaceOnUse" color-interpolation-filters="sRGB">
<feFlood flood-opacity="0" result="BackgroundImageFix"/>
<feBlend mode="normal" in="SourceGraphic" in2="BackgroundImageFix" result="shape"/>
<feColorMatrix in="SourceAlpha" type="matrix" values="0 0 0 0 0 0 0 0 0 0 0 0 0 0 0 0 0 0 127 0" result="hardAlpha"/>
<feOffset dx="-0.368986" dy="-0.368986"/>
<feGaussianBlur stdDeviation="0.368986"/>
<feComposite in2="hardAlpha" operator="arithmetic" k2="-1" k3="1"/>
<feColorMatrix type="matrix" values="0 0 0 0 0.0117647 0 0 0 0 0.231373 0 0 0 0 0.792157 0 0 0 1 0"/>
<feBlend mode="normal" in2="shape" result="effect1_innerShadow_273_668"/>
</filter>
<radialGradient id="paint0_radial_273_668" cx="0" cy="0" r="1" gradientUnits="userSpaceOnUse" gradientTransform="translate(16.471 4.6) rotate(116.687) scale(8.84189 12.1182)">
<stop stop-color="#3BB7FF"/>
<stop offset="1" stop-color="#0244ED"/>
</radialGradient>
<radialGradient id="paint1_radial_273_668" cx="0" cy="0" r="1" gradientUnits="userSpaceOnUse" gradientTransform="translate(16.471 4.6) rotate(116.687) scale(8.84189 12.1182)">
<stop stop-color="#3BB7FF"/>
<stop offset="1" stop-color="#0244ED"/>
</radialGradient>
<radialGradient id="paint2_radial_273_668" cx="0" cy="0" r="1" gradientUnits="userSpaceOnUse" gradientTransform="translate(12.5044 14.4998) rotate(97.6549) scale(3.78662 4.1187)">
<stop stop-color="#3C7EFA"/>
<stop offset="1" stop-color="#0244ED"/>
</radialGradient>
<radialGradient id="paint3_radial_273_668" cx="0" cy="0" r="1" gradientUnits="userSpaceOnUse" gradientTransform="translate(17.4856 15.1002) rotate(90) scale(5.7 5.3503)">
<stop stop-color="#1B89FE"/>
<stop offset="0.984372" stop-color="#0244ED"/>
</radialGradient>
<radialGradient id="paint4_radial_273_668" cx="0" cy="0" r="1" gradientUnits="userSpaceOnUse" gradientTransform="translate(7.5 14.5) rotate(69.444) scale(4.272 4.00991)">
<stop stop-color="#3D66F9"/>
<stop offset="1" stop-color="#0244ED"/>
</radialGradient>
<radialGradient id="paint5_radial_273_668" cx="0" cy="0" r="1" gradientUnits="userSpaceOnUse" gradientTransform="translate(12.5545 7.68182) rotate(100.179) scale(2.63234 6.19519)">
<stop stop-color="#35A9F9"/>
<stop offset="1" stop-color="#0244ED"/>
</radialGradient>
<radialGradient id="paint6_radial_273_668" cx="0" cy="0" r="1" gradientUnits="userSpaceOnUse" gradientTransform="translate(19.4489 9.94502) rotate(-139.247) scale(3.98475 5.79324)">
<stop stop-color="#3E68FF"/>
<stop offset="1" stop-color="#3557DD"/>
</radialGradient>
<radialGradient id="paint7_radial_273_668" cx="0" cy="0" r="1" gradientUnits="userSpaceOnUse" gradientTransform="translate(3.37171 7.50019) rotate(28.4588) scale(3.56748 9.22699)">
<stop stop-color="#A1ADFF"/>
<stop offset="1" stop-color="#FDE8FA"/>
</radialGradient>
<radialGradient id="paint8_radial_273_668" cx="0" cy="0" r="1" gradientUnits="userSpaceOnUse" gradientTransform="translate(5.37051 9.12795) rotate(53.5496) scale(2.32551 1.99425)">
<stop offset="0.0023" stop-color="#FBB040"/>
<stop offset="0.0546" stop-color="#E09D39"/>
<stop offset="0.1793" stop-color="#A5742A"/>
<stop offset="0.3039" stop-color="#72501D"/>
<stop offset="0.4256" stop-color="#493312"/>
<stop offset="0.5436" stop-color="#291D0A"/>
<stop offset="0.657" stop-color="#120D04"/>
<stop offset="0.7638" stop-color="#040301"/>
<stop offset="0.8571"/>
</radialGradient>
<radialGradient id="paint9_radial_273_668" cx="0" cy="0" r="1" gradientUnits="userSpaceOnUse" gradientTransform="translate(5.89605 9.72057) rotate(116.441) scale(9.71834 0.288582)">
<stop offset="0.0023" stop-color="#FBB040"/>
<stop offset="0.0546" stop-color="#E09D39"/>
<stop offset="0.1793" stop-color="#A5742A"/>
<stop offset="0.3039" stop-color="#72501D"/>
<stop offset="0.4256" stop-color="#493312"/>
<stop offset="0.5436" stop-color="#291D0A"/>
<stop offset="0.657" stop-color="#120D04"/>
<stop offset="0.7638" stop-color="#040301"/>
<stop offset="0.8571"/>
</radialGradient>
<radialGradient id="paint10_radial_273_668" cx="0" cy="0" r="1" gradientUnits="userSpaceOnUse" gradientTransform="translate(5.93827 9.99726) rotate(25.0008) scale(9.73293 0.288252)">
<stop offset="0.0023" stop-color="#FBB040"/>
<stop offset="0.0546" stop-color="#E09D39"/>
<stop offset="0.1793" stop-color="#A5742A"/>
<stop offset="0.3039" stop-color="#72501D"/>
<stop offset="0.4256" stop-color="#493312"/>
<stop offset="0.5436" stop-color="#291D0A"/>
<stop offset="0.657" stop-color="#120D04"/>
<stop offset="0.7638" stop-color="#040301"/>
<stop offset="0.8571"/>
</radialGradient>
<radialGradient id="paint11_radial_273_668" cx="0" cy="0" r="1" gradientUnits="userSpaceOnUse" gradientTransform="translate(5.89913 9.85562) rotate(-16.5052) scale(4.53275 0.134008)">
<stop offset="0.0023" stop-color="#FBB040"/>
<stop offset="0.0546" stop-color="#E09D39"/>
<stop offset="0.1793" stop-color="#A5742A"/>
<stop offset="0.3039" stop-color="#72501D"/>
<stop offset="0.4256" stop-color="#493312"/>
<stop offset="0.5436" stop-color="#291D0A"/>
<stop offset="0.657" stop-color="#120D04"/>
<stop offset="0.7638" stop-color="#040301"/>
<stop offset="0.8571"/>
</radialGradient>
<radialGradient id="paint12_radial_273_668" cx="0" cy="0" r="1" gradientUnits="userSpaceOnUse" gradientTransform="translate(5.89494 9.83344) rotate(73.6197) scale(4.52825 0.134719)">
<stop offset="0.0023" stop-color="#FBB040"/>
<stop offset="0.0546" stop-color="#E09D39"/>
<stop offset="0.1793" stop-color="#A5742A"/>
<stop offset="0.3039" stop-color="#72501D"/>
<stop offset="0.4256" stop-color="#493312"/>
<stop offset="0.5436" stop-color="#291D0A"/>
<stop offset="0.657" stop-color="#120D04"/>
<stop offset="0.7638" stop-color="#040301"/>
<stop offset="0.8571"/>
</radialGradient>
<radialGradient id="paint13_radial_273_668" cx="0" cy="0" r="1" gradientUnits="userSpaceOnUse" gradientTransform="translate(6.22942 9.99797) rotate(25.9626) scale(2.57895 0.835166)">
<stop offset="0.0023" stop-color="#FBB040"/>
<stop offset="0.0546" stop-color="#E09D39"/>
<stop offset="0.1793" stop-color="#A5742A"/>
<stop offset="0.3039" stop-color="#72501D"/>
<stop offset="0.4256" stop-color="#493312"/>
<stop offset="0.5436" stop-color="#291D0A"/>
<stop offset="0.657" stop-color="#120D04"/>
<stop offset="0.7638" stop-color="#040301"/>
<stop offset="0.8571"/>
</radialGradient>
<radialGradient id="paint14_radial_273_668" cx="0" cy="0" r="1" gradientUnits="userSpaceOnUse" gradientTransform="translate(5.00924 11.3699) rotate(-58.8612) scale(2.57929 0.835017)">
<stop offset="0.0023" stop-color="#FBB040"/>
<stop offset="0.0546" stop-color="#E09D39"/>
<stop offset="0.1793" stop-color="#A5742A"/>
<stop offset="0.3039" stop-color="#72501D"/>
<stop offset="0.4256" stop-color="#493312"/>
<stop offset="0.5436" stop-color="#291D0A"/>
<stop offset="0.657" stop-color="#120D04"/>
<stop offset="0.7638" stop-color="#040301"/>
<stop offset="0.8571"/>
</radialGradient>
<radialGradient id="paint15_radial_273_668" cx="0" cy="0" r="1" gradientUnits="userSpaceOnUse" gradientTransform="translate(5.93283 9.85867) rotate(-16.5053) scale(1.15464 0.372282)">
<stop offset="0.0023" stop-color="#FBB040"/>
<stop offset="0.0546" stop-color="#E09D39"/>
<stop offset="0.1793" stop-color="#A5742A"/>
<stop offset="0.3039" stop-color="#72501D"/>
<stop offset="0.4256" stop-color="#493312"/>
<stop offset="0.5436" stop-color="#291D0A"/>
<stop offset="0.657" stop-color="#120D04"/>
<stop offset="0.7638" stop-color="#040301"/>
<stop offset="0.8571"/>
</radialGradient>
<radialGradient id="paint16_radial_273_668" cx="0" cy="0" r="1" gradientUnits="userSpaceOnUse" gradientTransform="translate(5.90319 9.90041) rotate(70.7261) scale(1.14991 0.373748)">
<stop offset="0.0023" stop-color="#FBB040"/>
<stop offset="0.0546" stop-color="#E09D39"/>
<stop offset="0.1793" stop-color="#A5742A"/>
<stop offset="0.3039" stop-color="#72501D"/>
<stop offset="0.4256" stop-color="#493312"/>
<stop offset="0.5436" stop-color="#291D0A"/>
<stop offset="0.657" stop-color="#120D04"/>
<stop offset="0.7638" stop-color="#040301"/>
<stop offset="0.8571"/>
</radialGradient>
<radialGradient id="paint17_radial_273_668" cx="0" cy="0" r="1" gradientUnits="userSpaceOnUse" gradientTransform="translate(6.21372 8.9014) rotate(163.513) scale(6.65332)">
<stop offset="0.0023" stop-color="#FBB040"/>
<stop offset="0.0546" stop-color="#E09D39"/>
<stop offset="0.1793" stop-color="#A5742A"/>
<stop offset="0.3039" stop-color="#72501D"/>
<stop offset="0.4256" stop-color="#493312"/>
<stop offset="0.5436" stop-color="#291D0A"/>
<stop offset="0.657" stop-color="#120D04"/>
<stop offset="0.7638" stop-color="#040301"/>
<stop offset="0.8571"/>
</radialGradient>
<clipPath id="clip0_273_668">
<rect width="24" height="24" fill="white"/>
</clipPath>
</defs>
</svg>
