<?xml version="1.0" encoding="UTF-8"?>
<svg id="Layer_1" xmlns="http://www.w3.org/2000/svg" version="1.1" viewBox="0 0 300 92.42">
  <!-- Generator: Adobe Illustrator 29.3.1, SVG Export Plug-In . SVG Version: 2.1.0 Build 151)  -->
  <defs>
    <style>
      .st0 {
        fill: #1b1b1b;
      }

      .st1 {
        fill: #e9e313;
      }
    </style>
  </defs>
  <g>
    <path class="st1" d="M34.84,37.41c-.33-.25-.73-.38-1.19-.38s-.86.12-1.2.37c-.31.23-.58.54-.79.91l-11.32,18.85h4.8l8.38-14.17,3.47,5.83h-5.31l-2.07,3.56h9.5l2.85,4.78h5.01l-11.34-18.84c-.22-.38-.48-.69-.78-.91Z"/>
    <path class="st1" d="M67.89,39.27c-.63-.62-1.42-1.11-2.33-1.46-.91-.34-1.95-.51-3.09-.51h-13.79v19.87h4.16v-15.68h9.63c1.06,0,1.85.28,2.43.84.57.57.85,1.32.85,2.3s-.28,1.73-.86,2.31c-.57.58-1.37.86-2.42.86h-8.06v4.08h8.06c1.15,0,2.19-.18,3.1-.54.92-.36,1.7-.88,2.33-1.53.63-.65,1.12-1.44,1.45-2.33.33-.89.5-1.88.5-2.96s-.17-2.09-.5-2.97c-.33-.89-.83-1.66-1.46-2.29Z"/>
    <polygon class="st1" points="76.36 41.48 92.19 41.48 92.19 37.3 72.2 37.3 72.2 57.17 92.22 57.17 92.22 52.98 76.36 52.98 76.36 41.48"/>
    <rect class="st1" x="77.92" y="45.24" width="13.57" height="3.66"/>
    <polygon class="st1" points="119.93 37.3 114.36 37.3 107.4 44.16 100.34 37.3 94.52 37.3 104.43 46.85 93.79 57.17 99.35 57.17 107.07 49.58 114.86 57.17 120.77 57.17 110.02 46.85 119.93 37.3"/>
    <path class="st1" d="M189.74,45.24h-10.5c-.62,0-1.1-.16-1.44-.48-.34-.32-.5-.77-.5-1.38s.16-1.07.5-1.4c.34-.33.82-.49,1.47-.49h15.88v-4.19h-15.88c-.99,0-1.88.15-2.66.43-.78.29-1.45.69-1.99,1.2-.54.51-.96,1.13-1.23,1.84-.27.7-.41,1.47-.41,2.29s.15,1.62.44,2.33c.29.71.71,1.34,1.25,1.86.54.52,1.2.93,1.98,1.22.77.29,1.63.43,2.57.43h10.53c.78,0,1.37.17,1.77.51.38.33.57.82.57,1.51,0,.63-.19,1.12-.58,1.49-.39.37-.98.56-1.75.56h-14.34l2.32,4.19h12.03c1.04,0,1.97-.15,2.75-.45.8-.3,1.47-.72,2-1.27.53-.54.93-1.19,1.2-1.92.26-.72.39-1.52.39-2.37,0-1.97-.55-3.46-1.65-4.45-1.08-.98-2.66-1.47-4.69-1.47Z"/>
    <polygon class="st1" points="215.55 37.3 196.94 37.3 196.94 41.48 204.15 41.48 204.15 57.17 208.34 57.17 208.34 41.48 215.55 41.48 215.55 37.3"/>
    <path class="st1" d="M226.19,37.41c-.33-.25-.73-.38-1.19-.38s-.86.13-1.2.37c-.31.23-.58.53-.8.91l-11.32,18.85h4.8l8.38-14.17,3.47,5.83h-5.32l-2.07,3.56h9.5l2.85,4.78h5.01l-11.34-18.84c-.22-.38-.48-.69-.78-.91Z"/>
    <rect class="st1" x="239.15" y="37.3" width="4.19" height="19.87"/>
    <path class="st1" d="M261.22,37.3h-6.55l-10.17,7.82c-.41.31-.68.6-.81.9-.13.28-.2.61-.2.97,0,.31.05.6.14.86.11.3.34.58.7.86l10.76,8.46h6.51l-13.4-10.15,13.03-9.71Z"/>
    <rect class="st1" x="267.74" y="45.24" width="12.7" height="3.66"/>
    <polygon class="st1" points="266.18 52.98 266.18 41.48 281.15 41.48 281.15 37.3 262.02 37.3 262.02 57.17 281.17 57.17 281.17 52.98 266.18 52.98"/>
  </g>
  <polygon class="st1" points="170.92 52.75 157.81 30.27 151.07 16.49 144.75 16.49 137.83 30.27 124.72 52.75 116.19 67.52 127.43 78.97 136.17 73.35 159.47 73.35 168.21 78.97 179.45 67.52 170.92 52.75"/>
  <g>
    <path class="st0" d="M153.73,16.49h-10.62l-26.92,51.04,11.24,11.45,8.74-5.62h23.31l1.17.76h.06v.04l7.5,4.82,11.24-11.45-25.72-51.04ZM136.5,65.55c-2.36,1.05-4.82,1.87-7.15,2.98-.77.36-1.48.82-2.23,1.19-.08.04-.14.11-.25.08,1.01-1.07,2.27-1.99,3.56-2.71,2.13-1.18,4.52-2.05,6.99-2.03-.23.22-.61.35-.92.49ZM131.01,60.29c.96-.63,1.82-1.57,3.03-1.65,1.68-.11,3.86.73,6.08,1.92.03.12-.06.14-.14.19-.24.19-.58.35-.84.54-.8.58-1.56,1.23-2.25,1.93-1.09-.12-2.18-.31-3.27-.39-1.31-.09-2.71-.1-4.01.07-.68.09-1.34.31-2.02.41l2.76-2.07c.97-.21,1.96-.17,2.94-.09-.13-.41-2.28-.75-2.28-.87ZM154.85,50.9s-.27.77-.27.96-.78.27-1.69-.11l1.97-.85ZM153.01,50.55c.27-.37.69-1.29,1.22-1.93.15-.09.75,1.04.86,1.15l-2.07.78ZM154.31,53.98c-.09.47-.69.88-.71,1.18-.02.21.09.31.12.5.02.16.31,1.29.25,1.36-1.01-.54-2.81-.76-4.44.16l.36-2.1,1.19.17s-.8-.43-1.11-.74c-.42-.41-.3-1.3.38-1.57,1.11-.43,2.22.53,2.22.53,1-.64,1.89-.29,1.74.52ZM153.82,58.76c-.58-.37-1.09-.52-1.54-.55-1.81-.13-2.76.45-2.76.45,1.12-1.07,3.68-1.86,4.3.1ZM149.08,51.81c-.15-.05-1.68-1.69-1.84-1.85.12-.06,2.51.84,2.76.93.19.07,1.01.63,1.1.78-.73.25-1.8.2-2.02.13ZM152.38,50.99c-.14.03-3.07-2.11-5.18-1.83-.35.05-1.15.35-1.33.97-.06.19-.23,1.04.47,1.51.35.24,2.57,1.42,2.6,1.51-1.17,2.79-1.19,5.51-1.26,6.01-.01.08.03.1-.09.09-1.11-.74-3.62-2.89-4.36-4.02-.14-.22,0,0,0-.23.74.84,1.94,1.37,2.97,1.84,0,0,.04-.22.46-1.42.57-1.66.65-2.1.64-2.21,0-.07-.04-.11-.1-.14-.53-.31-.96-.62-1.44-.94-.99-.66-.69-2.35-.23-2.89,1.07-1.26,4.17-.92,5.36-.59l.14-1.82c-1.5-.12-3.91-.56-3.91-.66,1.41-.47,3.24-.8,4.78-.99,1.1,2.49.48,5.82.48,5.82ZM150.66,42.86c-.13-.67-6.97-.43-8.57,3.96.32-1.43,1.23-5.17,7.41-5.45l3.2-6.52-2.04,8.01ZM142.3,63.21c.78,1.52-1.37,2.55-2.52,1.41-.53-.52-.63-1.23-.17-1.83.62-.81,2.23-.47,2.69.42ZM143.9,71.06l-5.51-2.85c.05-.07.11-.09.18-.12,1.52-.65,4.96-1.67,6.57-1.71.21,0-2.07-.36-2.66-.6.14-.14,1.69-1.52,4.52-.54,2.37.83,2.53,3.04,2.6,4.2l.06,1.62c-.47.03-5.74.06-5.75,0ZM159.35,69.34c-.02.26-.1.59-.17.79-.05.14-6.6,1.35-6.6,1.35l-.9-.42c-.13-.13-.36-2.92-.36-2.92-.11-.69-.13-1.56.43-1.97.68-.49,1.48-.58,2.3-.43,2.54.47,5.29,3.2,5.3,3.43,0,.05,0,.11-.01.17ZM156.67,63.12c.16-.21.49-.31.75-.32,1.03,0,1.96,1.27,1.22,2.11-.83.93-2.86-.66-1.97-1.79ZM158.7,61.43s.9-.83,1.06-.77c.76.56,4.28,3.56,4.54,3.79.17.14.38.5.51.69.03.11-4.71-2.23-4.88-2.43-.4-.44-.88-.81-1.23-1.29ZM164.16,68.51c-1.05-1.17-2.43-2.14-3.66-3.11l-.06-.75c.1-.02.14.02.21.06.56.3,1.47,1.02,1.97,1.44,1.4,1.17,2.63,2.69,3.09,4.49l-1.56-2.13ZM167.21,67.72c.05-.2.1-.37.13-.5.03-.11.04-.19.04-.2-.11-.46-1.25-2.23-1.58-2.68-1-1.35-1.86-1.83-3.11-2.83-.8-.63-1.55-1.36-2.34-1.97-.28-.22-.67-.52-1.02-.6-.71-.17-2.88-1.39-2.88-1.39-.13.36-1.45,1.79-1.6,1.91.28-1.19.89-5.12.93-5.9,0-.03-.55-1.69-.55-2.01,0-.32.19-.81.23-1.21.09-.83-.03-1.02-.27-1.68-.25-.68-.42-1.39-.71-2.05-.56-1.32-1.14-1.93-1.99-3.06.06-.32,1.64-6.91,2.21-8.48.02-.05.27-.72.29-.77,0,0-1.41-.52-3.96-.99-.24-.04-.9-.28-.92.04l-.51,2.74c-.11-.55-.46-2.45-.39-3-1.96-.1-3.22.27-4.89,1.31-.29.18-.82.52-1.05.75-.05.05-.14.09-.13.18l1.06,2.41-1.8-1.62c-.88.91-1.22,1.51-1.71,2.68-.08.18-.44,1.15-.38,1.25.03.05,1.07.66,1.02.83-.7.01-1.4-.05-2.18,1.87-.9,2.2-1.05,5.44-1.03,7.81l2.77-1.94c.14-.59.03,7.06-3.27,7.68-.88.16-.89.68-1.85.61-.71-.05-2.65-.25-2.65-.25-.3.1-1.2.78-1.51,1.01-2.48,1.79-5.62,4.14-7.15,6.82-.1.18-.67,1.26-.59,1.36l.32.49,1,1.54v.87c0,.77.18,2.09-.18,2.73l-4.25-4.37,24.61-46.61h5.88l23.28,45.94-5.59,6.04c-.19-.54-1.9-4.14-1.73-4.75Z"/>
    <path class="st0" d="M151.08,55.24s.05,0,0,0h0Z"/>
    <path class="st0" d="M150.92,53.56c-.07,0-.25,0-.39.06-.24.1-.22.45.03.52,1.29.36,1.72,1.21,1.72,1.21,0,0,.45-.66.97-.86.67-.25.7-.89.34-.86-.14-.03-1.1.56-1.25.69-.32-.34-.57-.76-1.41-.77Z"/>
  </g>
</svg>