<svg width="25" height="24" viewBox="0 0 25 24" fill="none" xmlns="http://www.w3.org/2000/svg">
<path d="M5.60209 6.19199L6.25009 8.95199L5.60209 11.7L8.01409 13.188L9.49009 15.6L12.2501 14.952L15.0101 15.6L16.4861 13.188L18.8981 11.7L18.2501 8.95199L18.8981 6.19199L16.4981 4.70399L15.0101 2.29199L12.2501 2.95199L9.50209 2.30399L8.00209 4.70399L5.60209 6.19199ZM12.2621 13.8C10.9891 13.8 9.76816 13.2943 8.86798 12.3941C7.96781 11.4939 7.46209 10.273 7.46209 8.99999C7.46209 7.72695 7.96781 6.50605 8.86798 5.60588C9.76816 4.70571 10.9891 4.19999 12.2621 4.19999C14.9021 4.19999 17.0501 6.34799 17.0501 8.98799C17.0501 11.652 14.9021 13.8 12.2621 13.8ZM12.2381 12.6C10.2461 12.6 8.65009 10.992 8.65009 8.99999C8.65009 7.01999 10.2461 5.39999 12.2381 5.39999C14.2301 5.39999 15.8501 7.01999 15.8501 8.99999C15.8501 10.992 14.2301 12.6 12.2381 12.6ZM16.8461 13.92L15.3101 16.608L12.8141 16.044L15.8501 23.04L17.5301 20.4H20.5301L16.8461 13.92ZM7.60609 14.004L9.10609 16.704L11.6621 16.092L8.65009 23.04L6.97009 20.4H3.97009L7.60609 14.004Z" fill="#ADA9A9"/>
</svg>
