<svg width="24" height="25" viewBox="0 0 24 25" fill="none" xmlns="http://www.w3.org/2000/svg">
<g clip-path="url(#clip0_273_446)">
<path d="M0 3.91699C0 4.76074 0.670313 5.53887 1.8 6.16699C3.16406 6.92168 5.19844 7.45605 7.53281 7.61543C7.70625 7.53105 7.87969 7.45137 8.0625 7.38105C9.90938 6.60762 12.3656 6.16699 15 6.16699C15.3891 6.16699 15.7688 6.17637 16.1484 6.19512L16.2 6.16699C17.3297 5.53887 18 4.76074 18 3.91699C18 1.84512 13.9688 0.166992 9 0.166992C4.03125 0.166992 0 1.84512 0 3.91699ZM16.4672 7.71855C15.9891 7.68574 15.4969 7.66699 15 7.66699C12.0844 7.66699 9.49687 8.24355 7.85156 9.13887C6.68906 9.77168 6 10.5592 6 11.417C6 11.6045 6.03281 11.7873 6.09844 11.9654C6.31406 12.5842 6.89531 13.1514 7.73906 13.6295C7.74375 13.6342 7.75312 13.6342 7.75781 13.6389C7.77188 13.6482 7.78594 13.6529 7.8 13.6623C9.44062 14.5717 12.0562 15.1623 15 15.1623C17.7937 15.1623 20.2922 14.6326 21.9469 13.7982C22.0359 13.7561 22.1203 13.7092 22.2047 13.6623C23.3297 13.0389 24 12.2607 24 11.417C24 9.78574 21.4969 8.39355 18 7.88262C17.5078 7.8123 16.9969 7.75605 16.4672 7.71855ZM4.5 11.417C4.5 10.3904 4.99688 9.54668 5.62969 8.91387C4.30313 8.70762 3.08906 8.37949 2.05781 7.95293C1.29375 7.63418 0.581249 7.24043 0 6.75762V8.41699C0 9.32168 0.773438 10.1561 2.05312 10.8029C2.7375 11.1498 3.57188 11.4451 4.50938 11.6701C4.50469 11.5857 4.5 11.5061 4.5 11.4217V11.417ZM6 15.917C6 16.7607 6.67031 17.5389 7.8 18.167C7.88437 18.2139 7.96875 18.2561 8.05781 18.3029C9.70781 19.1373 12.2063 19.667 15 19.667C17.9437 19.667 20.5594 19.0764 22.2 18.167C23.3297 17.5389 24 16.7607 24 15.917V14.2576C23.4141 14.7404 22.7062 15.1342 21.9422 15.4529C20.0906 16.2264 17.6344 16.667 15 16.667C12.3656 16.667 9.90937 16.2264 8.05781 15.4529C7.69219 15.3029 7.34063 15.1295 7.00781 14.942C6.72187 14.7826 6.45469 14.6045 6.20156 14.417C6.13125 14.3654 6.06562 14.3092 6 14.2576V15.917ZM4.5 15.917V13.2029C3.60938 13.0061 2.78906 12.7576 2.05781 12.4529C1.29375 12.1342 0.581249 11.7404 0 11.2576V12.917C0 13.4092 0.234375 13.9014 0.698437 14.3654C1.4625 15.1295 2.80781 15.7576 4.50938 16.1654C4.50469 16.0857 4.5 16.0014 4.5 15.917ZM15 21.167C12.3656 21.167 9.90937 20.7264 8.05781 19.9529C7.29375 19.6342 6.58125 19.2404 6 18.7576V20.417C6 22.4889 10.0312 24.167 15 24.167C19.9688 24.167 24 22.4889 24 20.417V18.7576C23.4141 19.2404 22.7062 19.6342 21.9422 19.9529C20.0906 20.7264 17.6344 21.167 15 21.167Z" fill="#ADA9A9"/>
</g>
<defs>
<clipPath id="clip0_273_446">
<rect width="24" height="24" fill="white" transform="matrix(-1 0 0 1 24 0.166992)"/>
</clipPath>
</defs>
</svg>
