<svg width="24" height="24" viewBox="0 0 24 24" fill="none" xmlns="http://www.w3.org/2000/svg">
<path d="M22.9678 9.21046L21.0284 20.2509C20.8974 21.0189 20.4863 21.7185 19.8671 22.2272C19.2076 22.7281 18.3885 23.0006 17.5444 23H6.38411C5.56807 22.9932 4.78044 22.7143 4.15859 22.2119C3.53674 21.7094 3.12014 21.0155 2.98144 20.2509L1.04203 9.21046C0.937 8.57345 1.02983 7.92115 1.30913 7.33358C1.58834 6.74903 2.04023 6.25423 2.60981 5.90936L10.1352 1.49317C10.685 1.17075 11.3183 1 11.9643 1C12.6103 1 13.2435 1.17075 13.7933 1.49317L21.3071 5.90936C21.8959 6.24057 22.3651 6.73408 22.6542 7.32254C22.9516 7.90888 23.0607 8.56553 22.9678 9.21046Z" fill="#ADA9A9"/>
</svg>
