<svg width="25" height="24" viewBox="0 0 25 24" fill="none" xmlns="http://www.w3.org/2000/svg">
<path d="M17.0117 11.0229C16.7763 11.0345 16.533 11.0391 16.2982 11.0152C16.2507 11.01 16.2033 11.004 16.156 10.9971C16.1087 10.9902 16.0616 10.9825 16.0146 10.9739C15.9675 10.9653 15.9207 10.9559 15.874 10.9456C15.8273 10.9354 15.7809 10.9243 15.7346 10.9124C15.6883 10.9005 15.6422 10.8878 15.5964 10.8743C15.5505 10.8607 15.5049 10.8464 15.4596 10.8312C15.4143 10.816 15.3692 10.8001 15.3245 10.7833C15.2797 10.7665 15.2353 10.749 15.1911 10.7306C15.147 10.7123 15.1032 10.6931 15.0598 10.6732C15.0163 10.6533 14.9732 10.6326 14.9305 10.6112C14.8878 10.5897 14.8455 10.5675 14.8035 10.5446C14.7616 10.5216 14.7201 10.4979 14.679 10.4734C14.6379 10.449 14.5973 10.4238 14.5571 10.398C14.5169 10.3721 14.4772 10.3455 14.4379 10.3182C14.3987 10.2909 14.3599 10.2629 14.3216 10.2342C14.2834 10.2055 14.2457 10.1762 14.2085 10.1461C13.5526 9.60846 13.0942 8.93996 12.8606 8.12154C12.7989 7.90553 12.7479 7.69287 12.7262 7.46874C12.6218 6.39167 12.9105 5.31975 13.6028 4.47812C14.3158 3.61153 15.3159 3.11571 16.4235 3.00835C16.4277 3.00799 16.4318 3.00752 16.4359 3.00727C17.4564 2.94717 18.5176 3.25997 19.2966 3.93642C20.1518 4.67898 20.6357 5.62623 20.7149 6.75947C20.7171 6.79195 20.7189 6.82444 20.7203 6.85695C20.7218 6.88947 20.7228 6.922 20.7234 6.95452C20.724 6.98708 20.7243 7.01963 20.7241 7.05218C20.7239 7.08473 20.7234 7.11726 20.7224 7.14979C20.7215 7.18232 20.7201 7.21483 20.7184 7.24733C20.7166 7.27984 20.7145 7.31232 20.7119 7.34477C20.7094 7.3772 20.7064 7.40961 20.7031 7.442C20.6998 7.47436 20.696 7.50668 20.6919 7.53897C20.6878 7.57126 20.6833 7.60349 20.6784 7.63566C20.6735 7.66784 20.6682 7.69995 20.6625 7.732C20.6568 7.76405 20.6507 7.79602 20.6443 7.82791C20.6378 7.8598 20.631 7.89162 20.6237 7.92336C20.6165 7.95508 20.6088 7.98672 20.6008 8.01828C20.5928 8.04981 20.5844 8.08125 20.5756 8.11259C20.5669 8.14393 20.5577 8.17516 20.5482 8.20626C20.5386 8.23737 20.5287 8.26836 20.5184 8.29923C20.5081 8.3301 20.4975 8.36085 20.4864 8.39148C20.4754 8.42209 20.464 8.45256 20.4522 8.48288C20.4404 8.51321 20.4283 8.54339 20.4157 8.57343C20.4032 8.60347 20.3903 8.63336 20.3771 8.66309C20.3638 8.6928 20.3502 8.72236 20.3362 8.75176C20.3223 8.78114 20.3079 8.81035 20.2933 8.83939C20.2786 8.86842 20.2636 8.89727 20.2482 8.92597C20.2328 8.95463 20.2171 8.98311 20.201 9.0114C20.1849 9.03969 20.1685 9.06778 20.1517 9.09567C20.135 9.12355 20.1179 9.15123 20.1004 9.17869C20.083 9.20617 20.0652 9.23343 20.0471 9.26046C20.029 9.2875 20.0106 9.31431 19.9918 9.34089C19.9731 9.36748 19.954 9.39383 19.9346 9.41994C19.9152 9.44605 19.8955 9.47192 19.8755 9.49756C19.8555 9.5232 19.8351 9.5486 19.8145 9.57376C19.7938 9.5989 19.7729 9.62378 19.7516 9.6484C19.0653 10.4339 18.056 10.9569 17.0117 11.0229Z" fill="#ADA9A9"/>
<path d="M8.06734 9.53698C8.04159 9.53821 8.01582 9.53913 7.99002 9.53974C7.96425 9.54034 7.93848 9.54062 7.9127 9.5406C7.88691 9.54057 7.86112 9.54024 7.83535 9.5396C7.80958 9.53894 7.7838 9.53798 7.75803 9.53673C7.73228 9.53545 7.70654 9.53385 7.68082 9.53193C7.65512 9.53004 7.62943 9.52783 7.60375 9.52529C7.57809 9.52276 7.55247 9.51992 7.52689 9.51677C7.50128 9.51362 7.47572 9.51017 7.45021 9.5064C7.42472 9.50261 7.39927 9.49853 7.37385 9.49415C7.34843 9.48975 7.32307 9.48505 7.29777 9.48005C7.2725 9.47503 7.24727 9.46971 7.22209 9.46407C7.19693 9.45846 7.17183 9.45255 7.14679 9.44632C7.12177 9.44007 7.09684 9.43353 7.07199 9.42668C7.04712 9.41984 7.02234 9.4127 6.99765 9.40527C6.97297 9.39781 6.94836 9.39007 6.92384 9.38205C6.89935 9.374 6.87495 9.36565 6.85064 9.35701C6.82633 9.34837 6.80214 9.33945 6.77807 9.33024C6.75398 9.32101 6.73 9.31149 6.70615 9.30169C6.68231 9.29187 6.65859 9.28177 6.63496 9.2714C6.61137 9.26101 6.58789 9.25033 6.56453 9.23937C6.54119 9.22841 6.51798 9.21717 6.4949 9.20564C6.47183 9.19413 6.44889 9.18233 6.4261 9.17023C6.4033 9.15816 6.38066 9.14582 6.35818 9.1332C6.33569 9.12056 6.31336 9.10766 6.29118 9.09449C6.269 9.08131 6.24699 9.06786 6.22514 9.05416C6.20329 9.04045 6.18161 9.02647 6.16009 9.01222C6.1386 8.99799 6.11727 8.9835 6.09611 8.96876C6.07495 8.95398 6.05398 8.93896 6.03319 8.92369C6.01239 8.90845 5.99178 8.89294 5.97137 8.87718C5.95094 8.86139 5.93072 8.84537 5.91069 8.82913C5.89066 8.81287 5.87084 8.79636 5.85121 8.7796C5.83159 8.76286 5.81216 8.74589 5.79294 8.72868C5.77327 8.71125 5.75382 8.69359 5.7346 8.6757C5.7154 8.65778 5.69641 8.63963 5.67763 8.62126C5.65886 8.60287 5.64031 8.58426 5.62199 8.56544C5.60369 8.5466 5.58561 8.52753 5.56776 8.50823C5.54993 8.48894 5.53234 8.46944 5.51498 8.44972C5.49763 8.42997 5.48052 8.41003 5.46366 8.38988C5.4468 8.36974 5.4302 8.34938 5.41387 8.32881C5.3975 8.30823 5.3814 8.28746 5.36556 8.26649C5.34974 8.24554 5.33417 8.22437 5.31885 8.203C5.30353 8.18164 5.28848 8.1601 5.2737 8.13837C5.25892 8.11666 5.24443 8.09475 5.23022 8.07264C5.21598 8.05056 5.20202 8.0283 5.18833 8.00588C5.17464 7.98344 5.16125 7.96084 5.14815 7.93806C5.13502 7.91529 5.12218 7.89236 5.10963 7.86928C5.09707 7.84618 5.08481 7.82293 5.07285 7.79954C5.06086 7.77615 5.04918 7.75261 5.03781 7.72891C5.02641 7.70524 5.01531 7.68141 5.0045 7.65743C4.99372 7.63347 4.98322 7.60939 4.97301 7.58517C4.96282 7.56095 4.95292 7.53661 4.94332 7.51213C4.93372 7.48767 4.92443 7.46309 4.91545 7.43837C4.90646 7.41368 4.89778 7.38888 4.88941 7.36395C4.88104 7.33904 4.87299 7.31403 4.86526 7.28892C4.85751 7.2638 4.85007 7.23859 4.84295 7.21328C4.83581 7.18797 4.829 7.16259 4.82252 7.13711C4.81602 7.11164 4.80984 7.0861 4.80397 7.06048C4.79813 7.03485 4.7926 7.00915 4.78737 6.98339C4.78215 6.95764 4.77724 6.93182 4.77266 6.90595C4.76809 6.88005 4.76384 6.8541 4.75989 6.82811C4.75596 6.80212 4.75236 6.77609 4.74907 6.75003C4.74578 6.72394 4.74282 6.69782 4.74017 6.67166C4.73752 6.6455 4.7352 6.61932 4.73322 6.59311C4.73123 6.56691 4.72956 6.54068 4.72822 6.51442C4.67799 5.64547 4.99234 4.81221 5.5724 4.16698C5.99911 3.69238 6.62546 3.34334 7.2489 3.21515C7.43056 3.1778 7.61269 3.16605 7.7974 3.15583C8.65124 3.12067 9.42055 3.42439 10.0669 3.97457C10.2074 4.09408 10.3215 4.23042 10.4336 4.37579C10.8136 4.86863 11.046 5.42567 11.0961 6.04982C11.115 6.2861 11.1194 6.5439 11.0885 6.77879C11.0109 7.36736 10.7354 7.96956 10.3513 8.42046C9.76958 9.10337 8.952 9.46692 8.06734 9.53698Z" fill="#ADA9A9"/>
<path d="M2.5 16.7149C2.53572 16.3847 2.51048 16.0515 2.54366 15.7217C2.63759 14.788 2.91639 13.993 3.43142 13.2102C3.54835 13.0325 3.6625 12.8593 3.80465 12.7C4.84373 11.5354 6.13186 10.8957 7.69025 10.8059C7.75199 10.8031 7.81376 10.8013 7.87557 10.8006C7.93735 10.7999 7.99915 10.8002 8.06096 10.8017C8.12274 10.8031 8.18447 10.8056 8.24616 10.8092C8.30788 10.8129 8.3695 10.8175 8.43102 10.8233C8.49257 10.8291 8.55398 10.8359 8.61527 10.8438C8.67658 10.8517 8.73773 10.8606 8.79871 10.8707C8.85969 10.8807 8.92048 10.8918 8.98108 10.904C9.04168 10.9161 9.10205 10.9294 9.16217 10.9436C9.22233 10.9579 9.28221 10.9732 9.34182 10.9896C9.4014 11.0059 9.4607 11.0233 9.51972 11.0418C9.57871 11.0602 9.63736 11.0796 9.69567 11.1001C9.754 11.1206 9.81196 11.1421 9.86953 11.1646C9.92711 11.1871 9.98427 11.2106 10.041 11.2351C10.0978 11.2596 10.1541 11.2851 10.2099 11.3116C10.2658 11.338 10.3212 11.3654 10.3761 11.3938C10.431 11.4222 10.4854 11.4516 10.5393 11.4819C11.0039 11.7452 11.4115 12.0685 11.7891 12.4448C11.8402 12.4957 11.9644 12.6015 11.9729 12.6738C11.9794 12.7295 11.9153 12.7626 11.8753 12.7916C11.4609 13.0921 11.0904 13.44 10.7432 13.8154C10.6145 13.9551 10.4911 14.0993 10.3728 14.2479C10.2545 14.3966 10.1418 14.5493 10.0346 14.7061C9.92735 14.8629 9.82594 15.0234 9.73032 15.1876C9.6347 15.3518 9.54514 15.5192 9.46162 15.6899C9.40179 15.8124 9.33781 15.9352 9.28606 16.0615C9.24428 16.1633 9.22878 16.3033 9.16718 16.3913C9.1294 16.3879 9.09858 16.3505 9.07383 16.3231C8.86858 16.095 8.68837 15.8261 8.50202 15.5814L7.38495 14.1236C7.21457 13.9047 7.06536 13.6703 6.86759 13.4739C6.74002 13.3471 6.6056 13.2571 6.44067 13.1866C6.36485 13.1577 6.28698 13.1361 6.20709 13.122C5.90367 13.0666 5.56535 13.1083 5.29977 13.273C4.97886 13.472 4.75428 13.8267 4.52722 14.1201C4.26225 14.4626 4.00483 14.8088 3.74427 15.1547C3.52848 15.4411 3.2992 15.7164 3.08506 16.0047C2.94059 16.1992 2.68709 16.584 2.5 16.7149Z" fill="#ADA9A9"/>
<path d="M9.94007 20.8852L9.94621 19.5558C9.9471 19.2885 9.9382 19.0174 9.95753 18.7509C9.96114 18.7055 9.96521 18.6601 9.96973 18.6147C9.97424 18.5693 9.97921 18.524 9.98462 18.4787C9.99004 18.4334 9.9959 18.3882 10.0022 18.343C10.0086 18.2979 10.0153 18.2528 10.0225 18.2078C10.0297 18.1628 10.0374 18.1178 10.0455 18.0729C10.0536 18.0281 10.0622 17.9833 10.0712 17.9386C10.0802 17.8939 10.0896 17.8493 10.0995 17.8048C10.1094 17.7602 10.1197 17.7158 10.1305 17.6715C10.1413 17.6272 10.1525 17.583 10.1641 17.5389C10.1758 17.4949 10.1879 17.4509 10.2004 17.407C10.2129 17.3632 10.2259 17.3195 10.2393 17.2759C10.2527 17.2323 10.2665 17.1889 10.2807 17.1456C10.295 17.1023 10.3097 17.0591 10.3248 17.0161C10.3399 16.973 10.3555 16.9302 10.3714 16.8875C10.3874 16.8448 10.4038 16.8022 10.4206 16.7599C10.4374 16.7175 10.4547 16.6753 10.4723 16.6332C10.49 16.5912 10.508 16.5494 10.5265 16.5077C10.545 16.466 10.5639 16.4245 10.5832 16.3832C10.6026 16.3419 10.6223 16.3008 10.6424 16.2599C10.6625 16.219 10.6831 16.1783 10.704 16.1378C10.725 16.0973 10.7463 16.057 10.768 16.017C10.7898 15.9769 10.8119 15.937 10.8344 15.8974C10.857 15.8578 10.8799 15.8184 10.9032 15.7792C10.9265 15.74 10.9502 15.7011 10.9743 15.6624C10.9984 15.6237 11.0229 15.5852 11.0477 15.547C11.0726 15.5088 11.0979 15.4709 11.1235 15.4332C11.1491 15.3954 11.1751 15.358 11.2014 15.3208C11.2278 15.2836 11.2545 15.2467 11.2816 15.2101C11.3087 15.1734 11.3361 15.137 11.364 15.1009C11.3918 15.0648 11.42 15.0289 11.4485 14.9934C11.477 14.9579 11.5059 14.9226 11.5351 14.8876C11.5644 14.8526 11.5939 14.818 11.6238 14.7836C12.5744 13.6841 13.9816 12.8877 15.4034 12.6027C15.6981 12.5436 16.0066 12.5167 16.3061 12.495C16.4951 12.4735 16.7017 12.4853 16.8919 12.4887C18.0426 12.5086 19.1003 12.8326 20.1041 13.3882C20.4993 13.6069 20.8719 13.8884 21.2085 14.1886C22.2347 15.1037 22.8891 16.1893 23.2654 17.5088C23.3587 17.8362 23.4147 18.1645 23.45 18.5031C23.4681 18.6879 23.4796 18.8731 23.4844 19.0587C23.4961 19.4361 23.4883 19.815 23.4897 20.1926C23.4905 20.398 23.5084 20.6111 23.4951 20.8157C23.4935 20.841 23.4878 20.8575 23.4755 20.8797C23.2861 20.9019 23.077 20.8825 22.8853 20.883L9.94007 20.8852Z" fill="#ADA9A9"/>
<path d="M3.33339 17.8906C3.45245 17.6487 3.63479 17.4661 3.79341 17.2521C3.94358 17.0494 4.10098 16.853 4.25182 16.6513C4.47285 16.3557 4.68867 16.0559 4.91442 15.7637C5.01021 15.6398 5.11342 15.5216 5.20883 15.3975C5.36464 15.1948 5.52137 14.9903 5.67384 14.7851C5.76286 14.6653 5.84554 14.5223 5.9535 14.4199C6.01408 14.4533 7.81691 16.8594 8.05181 17.1647C8.17814 17.3289 8.31756 17.4826 8.44003 17.65C8.49897 17.7305 8.5492 17.8116 8.59516 17.9004C8.14909 17.8695 7.70242 17.8748 7.25564 17.879C7.21375 18.1762 7.17289 18.4778 7.17601 18.7786C7.18715 19.8454 7.67252 20.7447 8.4778 21.4206C8.72121 21.6249 8.99981 21.7773 9.22633 22C9.03261 21.9251 8.8374 21.9186 8.63442 21.8862C8.48277 21.862 8.33263 21.8246 8.18307 21.7901C7.66993 21.683 7.02088 21.3716 6.59996 21.058C6.38318 20.8965 6.18751 20.7095 6.0017 20.5137C5.45845 19.9414 5.09679 19.3446 4.82284 18.6021C4.73623 18.3675 4.65178 18.134 4.61525 17.8853C4.19135 17.8669 3.75707 17.8679 3.33339 17.8906Z" fill="#ADA9A9"/>
</svg>
