<svg width="16" height="17" viewBox="0 0 16 17" fill="none" xmlns="http://www.w3.org/2000/svg">
<g clip-path="url(#clip0_43_2550)">
<path d="M7.99989 15.8963C12.1727 15.8963 15.5554 12.5135 15.5554 8.34071C15.5554 4.16789 12.1727 0.785156 7.99989 0.785156C3.82707 0.785156 0.444336 4.16789 0.444336 8.34071C0.444336 12.5135 3.82707 15.8963 7.99989 15.8963Z" fill="#F4900C"/>
<path d="M7.99989 15.6111C12.1727 15.6111 15.5554 12.2284 15.5554 8.05556C15.5554 3.88274 12.1727 0.5 7.99989 0.5C3.82707 0.5 0.444336 3.88274 0.444336 8.05556C0.444336 12.2284 3.82707 15.6111 7.99989 15.6111Z" fill="url(#paint0_radial_43_2550)"/>
<path d="M8.00054 14.7223C11.437 14.7223 14.2228 11.9365 14.2228 8.50005C14.2228 5.06362 11.437 2.27783 8.00054 2.27783C4.5641 2.27783 1.77832 5.06362 1.77832 8.50005C1.77832 11.9365 4.5641 14.7223 8.00054 14.7223Z" fill="#F4DC66"/>
<path d="M8.00054 14.2779C11.437 14.2779 14.2228 11.4922 14.2228 8.05572C14.2228 4.61928 11.437 1.8335 8.00054 1.8335C4.5641 1.8335 1.77832 4.61928 1.77832 8.05572C1.77832 11.4922 4.5641 14.2779 8.00054 14.2779Z" fill="url(#paint1_linear_43_2550)"/>
</g>
<defs>
<radialGradient id="paint0_radial_43_2550" cx="0" cy="0" r="1" gradientUnits="userSpaceOnUse" gradientTransform="translate(7.99989 8.05556) rotate(90) scale(7.55556)">
<stop offset="0.539718" stop-color="#C06F03"/>
<stop offset="1" stop-color="#F5D549"/>
</radialGradient>
<linearGradient id="paint1_linear_43_2550" x1="8.45344" y1="14.387" x2="8.75533" y2="2.3115" gradientUnits="userSpaceOnUse">
<stop stop-color="#FFAC33"/>
<stop offset="1" stop-color="#AB6A0A"/>
</linearGradient>
<clipPath id="clip0_43_2550">
<rect width="16" height="16" fill="white" transform="translate(0 0.5)"/>
</clipPath>
</defs>
</svg>
