<svg width="139" height="139" viewBox="0 0 139 139" fill="none" xmlns="http://www.w3.org/2000/svg">
<g clip-path="url(#clip0_175_2492)">
<path d="M139 69.5C139 107.884 107.884 139 69.5 139C31.1162 139 0 107.884 0 69.5C0 31.1162 31.1162 0 69.5 0C107.884 0 139 31.1162 139 69.5ZM18.3772 69.5C18.3772 97.7343 41.2657 120.623 69.5 120.623C97.7343 120.623 120.623 97.7343 120.623 69.5C120.623 41.2657 97.7343 18.3772 69.5 18.3772C41.2657 18.3772 18.3772 41.2657 18.3772 69.5Z" fill="#63BDC9" fill-opacity="0.2"/>
<path d="M139 69.5C139 107.884 107.996 139 69.7506 139C31.5053 139 0.501465 107.884 0.501465 69.5C0.501465 31.1162 31.5053 0 69.7506 0C107.996 0 139 31.1162 139 69.5ZM18.398 69.5C18.398 97.964 41.3893 121.039 69.7506 121.039C98.1118 121.039 121.103 97.964 121.103 69.5C121.103 41.036 98.1118 17.9613 69.7506 17.9613C41.3893 17.9613 18.398 41.036 18.398 69.5Z" fill="url(#paint0_linear_175_2492)"/>
<path d="M43.1149 75.784V71.488H38.8189V69.22H43.1149V64.936H45.3829V69.22H49.6549V71.488H45.3829V75.784H43.1149ZM59.9458 79V76.144H52.2898V73.444L57.8218 61.72H61.1218L55.5898 73.444H59.9458V68.944H62.8738V73.444H64.4938V76.144H62.8738V79H59.9458ZM74.2662 79V76.144H66.6102V73.444L72.1422 61.72H75.4422L69.9102 73.444H74.2662V68.944H77.1942V73.444H78.8142V76.144H77.1942V79H74.2662ZM84.0917 79L82.1717 77.08L97.5437 61.72L99.4637 63.652L84.0917 79ZM95.8637 79.36C95.0717 79.36 94.3477 79.168 93.6917 78.784C93.0437 78.392 92.5237 77.872 92.1317 77.224C91.7397 76.568 91.5437 75.84 91.5437 75.04C91.5437 74.256 91.7437 73.536 92.1437 72.88C92.5437 72.224 93.0717 71.7 93.7277 71.308C94.3837 70.916 95.0957 70.72 95.8637 70.72C96.6557 70.72 97.3797 70.916 98.0357 71.308C98.6917 71.692 99.2117 72.212 99.5957 72.868C99.9877 73.516 100.184 74.24 100.184 75.04C100.184 75.84 99.9877 76.568 99.5957 77.224C99.2117 77.872 98.6917 78.392 98.0357 78.784C97.3797 79.168 96.6557 79.36 95.8637 79.36ZM95.8637 76.888C96.1917 76.888 96.4957 76.804 96.7757 76.636C97.0637 76.468 97.2917 76.244 97.4597 75.964C97.6277 75.684 97.7117 75.376 97.7117 75.04C97.7117 74.704 97.6277 74.396 97.4597 74.116C97.2917 73.836 97.0637 73.612 96.7757 73.444C96.4957 73.276 96.1917 73.192 95.8637 73.192C95.5277 73.192 95.2197 73.276 94.9397 73.444C94.6597 73.612 94.4317 73.836 94.2557 74.116C94.0877 74.396 94.0037 74.704 94.0037 75.04C94.0037 75.376 94.0877 75.684 94.2557 75.964C94.4317 76.244 94.6597 76.468 94.9397 76.636C95.2197 76.804 95.5277 76.888 95.8637 76.888ZM85.7717 70C84.9797 70 84.2557 69.808 83.5997 69.424C82.9437 69.032 82.4197 68.512 82.0277 67.864C81.6437 67.208 81.4517 66.48 81.4517 65.68C81.4517 64.896 81.6517 64.176 82.0517 63.52C82.4517 62.864 82.9797 62.34 83.6357 61.948C84.2917 61.556 85.0037 61.36 85.7717 61.36C86.5637 61.36 87.2837 61.556 87.9317 61.948C88.5877 62.332 89.1117 62.852 89.5037 63.508C89.8957 64.156 90.0917 64.88 90.0917 65.68C90.0917 66.48 89.8957 67.208 89.5037 67.864C89.1117 68.512 88.5877 69.032 87.9317 69.424C87.2837 69.808 86.5637 70 85.7717 70ZM85.7717 67.528C86.1077 67.528 86.4157 67.444 86.6957 67.276C86.9757 67.108 87.1997 66.884 87.3677 66.604C87.5357 66.324 87.6197 66.016 87.6197 65.68C87.6197 65.344 87.5357 65.036 87.3677 64.756C87.1997 64.476 86.9757 64.252 86.6957 64.084C86.4157 63.916 86.1077 63.832 85.7717 63.832C85.4357 63.832 85.1277 63.916 84.8477 64.084C84.5677 64.252 84.3437 64.476 84.1757 64.756C84.0077 65.036 83.9237 65.344 83.9237 65.68C83.9237 66.016 84.0077 66.324 84.1757 66.604C84.3437 66.884 84.5677 67.108 84.8477 67.276C85.1277 67.444 85.4357 67.528 85.7717 67.528Z" fill="white"/>
</g>
<defs>
<linearGradient id="paint0_linear_175_2492" x1="116.94" y1="69.5" x2="26.1634" y2="108.148" gradientUnits="userSpaceOnUse">
<stop offset="0.105" stop-color="#3045FF"/>
<stop offset="0.345" stop-color="#12B8FF"/>
<stop offset="0.88" stop-color="#01FA75"/>
</linearGradient>
<clipPath id="clip0_175_2492">
<rect width="139" height="139" fill="white"/>
</clipPath>
</defs>
</svg>
