<svg width="139" height="139" viewBox="0 0 139 139" fill="none" xmlns="http://www.w3.org/2000/svg">
<g clip-path="url(#clip0_175_2386)">
<path d="M139 69.5C139 107.884 107.884 139 69.5 139C31.1162 139 0 107.884 0 69.5C0 31.1162 31.1162 0 69.5 0C107.884 0 139 31.1162 139 69.5ZM18.3772 69.5C18.3772 97.7343 41.2657 120.623 69.5 120.623C97.7343 120.623 120.623 97.7343 120.623 69.5C120.623 41.2657 97.7343 18.3772 69.5 18.3772C41.2657 18.3772 18.3772 41.2657 18.3772 69.5Z" fill="#63BDC9" fill-opacity="0.2"/>
<path d="M139 69.5C139 107.884 107.996 139 69.7506 139C31.5053 139 0.501465 107.884 0.501465 69.5C0.501465 31.1162 31.5053 0 69.7506 0C107.996 0 139 31.1162 139 69.5ZM18.398 69.5C18.398 97.964 41.3893 121.039 69.7506 121.039C98.1118 121.039 121.103 97.964 121.103 69.5C121.103 41.036 98.1118 17.9613 69.7506 17.9613C41.3893 17.9613 18.398 41.036 18.398 69.5Z" fill="url(#paint0_linear_175_2386)"/>
<path d="M42.7751 75.784V71.488H38.4791V69.22H42.7751V64.936H45.0431V69.22H49.3151V71.488H45.0431V75.784H42.7751ZM58.406 79.36C57.278 79.36 56.262 79.096 55.358 78.568C54.462 78.032 53.75 77.292 53.222 76.348C52.694 75.404 52.43 74.32 52.43 73.096V67.84C52.43 66.528 52.69 65.388 53.21 64.42C53.738 63.452 54.474 62.704 55.418 62.176C56.37 61.648 57.474 61.384 58.73 61.384C59.602 61.384 60.43 61.532 61.214 61.828C61.998 62.116 62.694 62.58 63.302 63.22L61.214 65.248C60.91 64.888 60.538 64.604 60.098 64.396C59.666 64.188 59.21 64.084 58.73 64.084C58.058 64.084 57.47 64.244 56.966 64.564C56.462 64.876 56.07 65.288 55.79 65.8C55.518 66.312 55.382 66.86 55.382 67.444V70.312L54.854 69.736C55.35 69.16 55.946 68.712 56.642 68.392C57.338 68.064 58.066 67.9 58.826 67.9C59.914 67.9 60.874 68.148 61.706 68.644C62.538 69.132 63.194 69.804 63.674 70.66C64.154 71.508 64.394 72.476 64.394 73.564C64.394 74.644 64.118 75.624 63.566 76.504C63.022 77.376 62.298 78.072 61.394 78.592C60.49 79.104 59.494 79.36 58.406 79.36ZM58.406 76.588C58.966 76.588 59.478 76.456 59.942 76.192C60.406 75.92 60.774 75.556 61.046 75.1C61.326 74.636 61.466 74.124 61.466 73.564C61.466 73.004 61.33 72.492 61.058 72.028C60.786 71.564 60.418 71.196 59.954 70.924C59.498 70.644 58.99 70.504 58.43 70.504C57.87 70.504 57.358 70.644 56.894 70.924C56.43 71.196 56.062 71.564 55.79 72.028C55.518 72.492 55.382 73.004 55.382 73.564C55.382 74.108 55.514 74.612 55.778 75.076C56.05 75.532 56.414 75.9 56.87 76.18C57.334 76.452 57.846 76.588 58.406 76.588ZM72.9883 79.36C71.8443 79.36 70.8283 79.128 69.9403 78.664C69.0523 78.2 68.3563 77.556 67.8523 76.732C67.3483 75.908 67.0963 74.964 67.0963 73.9C67.0963 72.948 67.3163 72.064 67.7563 71.248C68.1963 70.432 68.8403 69.78 69.6883 69.292L69.6283 70.216C68.9643 69.712 68.4483 69.132 68.0803 68.476C67.7203 67.812 67.5403 67.068 67.5403 66.244C67.5403 65.252 67.7723 64.392 68.2363 63.664C68.7083 62.936 69.3523 62.372 70.1683 61.972C70.9843 61.564 71.9243 61.36 72.9883 61.36C74.0523 61.36 74.9923 61.564 75.8083 61.972C76.6323 62.372 77.2763 62.936 77.7403 63.664C78.2123 64.392 78.4483 65.252 78.4483 66.244C78.4483 67.068 78.2723 67.808 77.9203 68.464C77.5763 69.12 77.0523 69.712 76.3483 70.24L76.3363 69.304C77.1683 69.776 77.8043 70.424 78.2443 71.248C78.6923 72.064 78.9163 72.948 78.9163 73.9C78.9163 74.964 78.6603 75.908 78.1483 76.732C77.6443 77.556 76.9443 78.2 76.0483 78.664C75.1603 79.128 74.1403 79.36 72.9883 79.36ZM72.9883 76.636C73.8363 76.636 74.5243 76.404 75.0523 75.94C75.5883 75.476 75.8563 74.796 75.8563 73.9C75.8563 73.004 75.5923 72.324 75.0643 71.86C74.5363 71.388 73.8443 71.152 72.9883 71.152C72.1402 71.152 71.4563 71.388 70.9363 71.86C70.4163 72.324 70.1563 73.004 70.1563 73.9C70.1563 74.796 70.4163 75.476 70.9363 75.94C71.4563 76.404 72.1402 76.636 72.9883 76.636ZM72.9883 68.404C73.7003 68.404 74.2763 68.228 74.7163 67.876C75.1643 67.516 75.3883 66.972 75.3883 66.244C75.3883 65.516 75.1643 64.976 74.7163 64.624C74.2763 64.264 73.7003 64.084 72.9883 64.084C72.2843 64.084 71.7083 64.264 71.2603 64.624C70.8203 64.976 70.6003 65.516 70.6003 66.244C70.6003 66.972 70.8203 67.516 71.2603 67.876C71.7083 68.228 72.2843 68.404 72.9883 68.404ZM84.4316 79L82.5116 77.08L97.8836 61.72L99.8036 63.652L84.4316 79ZM96.2036 79.36C95.4116 79.36 94.6876 79.168 94.0316 78.784C93.3836 78.392 92.8636 77.872 92.4716 77.224C92.0796 76.568 91.8836 75.84 91.8836 75.04C91.8836 74.256 92.0836 73.536 92.4836 72.88C92.8836 72.224 93.4116 71.7 94.0676 71.308C94.7236 70.916 95.4356 70.72 96.2036 70.72C96.9956 70.72 97.7196 70.916 98.3756 71.308C99.0316 71.692 99.5516 72.212 99.9356 72.868C100.328 73.516 100.524 74.24 100.524 75.04C100.524 75.84 100.328 76.568 99.9356 77.224C99.5516 77.872 99.0316 78.392 98.3756 78.784C97.7196 79.168 96.9956 79.36 96.2036 79.36ZM96.2036 76.888C96.5316 76.888 96.8356 76.804 97.1156 76.636C97.4036 76.468 97.6316 76.244 97.7996 75.964C97.9676 75.684 98.0516 75.376 98.0516 75.04C98.0516 74.704 97.9676 74.396 97.7996 74.116C97.6316 73.836 97.4036 73.612 97.1156 73.444C96.8356 73.276 96.5316 73.192 96.2036 73.192C95.8676 73.192 95.5596 73.276 95.2796 73.444C94.9996 73.612 94.7716 73.836 94.5956 74.116C94.4276 74.396 94.3436 74.704 94.3436 75.04C94.3436 75.376 94.4276 75.684 94.5956 75.964C94.7716 76.244 94.9996 76.468 95.2796 76.636C95.5596 76.804 95.8676 76.888 96.2036 76.888ZM86.1116 70C85.3196 70 84.5956 69.808 83.9396 69.424C83.2836 69.032 82.7596 68.512 82.3676 67.864C81.9836 67.208 81.7916 66.48 81.7916 65.68C81.7916 64.896 81.9916 64.176 82.3916 63.52C82.7916 62.864 83.3196 62.34 83.9756 61.948C84.6316 61.556 85.3436 61.36 86.1116 61.36C86.9036 61.36 87.6236 61.556 88.2716 61.948C88.9276 62.332 89.4516 62.852 89.8436 63.508C90.2356 64.156 90.4316 64.88 90.4316 65.68C90.4316 66.48 90.2356 67.208 89.8436 67.864C89.4516 68.512 88.9276 69.032 88.2716 69.424C87.6236 69.808 86.9036 70 86.1116 70ZM86.1116 67.528C86.4476 67.528 86.7556 67.444 87.0356 67.276C87.3156 67.108 87.5396 66.884 87.7076 66.604C87.8756 66.324 87.9596 66.016 87.9596 65.68C87.9596 65.344 87.8756 65.036 87.7076 64.756C87.5396 64.476 87.3156 64.252 87.0356 64.084C86.7556 63.916 86.4476 63.832 86.1116 63.832C85.7756 63.832 85.4676 63.916 85.1876 64.084C84.9076 64.252 84.6836 64.476 84.5156 64.756C84.3476 65.036 84.2636 65.344 84.2636 65.68C84.2636 66.016 84.3476 66.324 84.5156 66.604C84.6836 66.884 84.9076 67.108 85.1876 67.276C85.4676 67.444 85.7756 67.528 86.1116 67.528Z" fill="white"/>
</g>
<defs>
<linearGradient id="paint0_linear_175_2386" x1="116.94" y1="69.5" x2="26.1634" y2="108.148" gradientUnits="userSpaceOnUse">
<stop offset="0.105" stop-color="#3045FF"/>
<stop offset="0.345" stop-color="#12B8FF"/>
<stop offset="0.88" stop-color="#01FA75"/>
</linearGradient>
<clipPath id="clip0_175_2386">
<rect width="139" height="139" fill="white"/>
</clipPath>
</defs>
</svg>
