<svg width="24" height="24" viewBox="0 0 24 24" fill="none" xmlns="http://www.w3.org/2000/svg">
<path d="M12.6001 14.3999C13.0775 14.3999 13.5354 14.5895 13.8729 14.9271C14.2105 15.2647 14.4001 15.7225 14.4001 16.1999V16.7999C14.4001 19.1651 12.1681 21.5999 8.40015 21.5999C4.63215 21.5999 2.40015 19.1651 2.40015 16.7999V16.1999C2.40015 15.7225 2.58979 15.2647 2.92735 14.9271C3.26492 14.5895 3.72276 14.3999 4.20015 14.3999H12.6001Z" fill="url(#paint0_linear_43_2806)"/>
<path d="M12.6001 14.3999C13.0775 14.3999 13.5354 14.5895 13.8729 14.9271C14.2105 15.2647 14.4001 15.7225 14.4001 16.1999V16.7999C14.4001 19.1651 12.1681 21.5999 8.40015 21.5999C4.63215 21.5999 2.40015 19.1651 2.40015 16.7999V16.1999C2.40015 15.7225 2.58979 15.2647 2.92735 14.9271C3.26492 14.5895 3.72276 14.3999 4.20015 14.3999H12.6001Z" fill="url(#paint1_linear_43_2806)"/>
<path d="M8.4001 6.6001C9.27531 6.6001 10.1147 6.94778 10.7336 7.56664C11.3524 8.18551 11.7001 9.02488 11.7001 9.9001C11.7001 10.7753 11.3524 11.6147 10.7336 12.2336C10.1147 12.8524 9.27531 13.2001 8.4001 13.2001C7.52488 13.2001 6.68551 12.8524 6.06664 12.2336C5.44778 11.6147 5.1001 10.7753 5.1001 9.9001C5.1001 9.02488 5.44778 8.18551 6.06664 7.56664C6.68551 6.94778 7.52488 6.6001 8.4001 6.6001Z" fill="url(#paint2_linear_43_2806)"/>
<path fill-rule="evenodd" clip-rule="evenodd" d="M14.4001 2.3999C13.7636 2.3999 13.1532 2.65276 12.7031 3.10285C12.253 3.55293 12.0001 4.16338 12.0001 4.7999V7.1999C12.0001 7.83642 12.253 8.44687 12.7031 8.89696C13.1532 9.34705 13.7636 9.5999 14.4001 9.5999V11.0723C14.4001 11.9627 15.5281 12.3503 16.0753 11.6471L17.6665 9.5999H19.2001C19.8366 9.5999 20.4471 9.34705 20.8972 8.89696C21.3473 8.44687 21.6001 7.83642 21.6001 7.1999V4.7999C21.6001 4.16338 21.3473 3.55293 20.8972 3.10285C20.4471 2.65276 19.8366 2.3999 19.2001 2.3999H14.4001Z" fill="url(#paint3_radial_43_2806)"/>
<defs>
<linearGradient id="paint0_linear_43_2806" x1="5.25375" y1="15.3575" x2="7.93935" y2="22.5047" gradientUnits="userSpaceOnUse">
<stop offset="0.125" stop-color="#9C6CFE"/>
<stop offset="1" stop-color="#7A41DC"/>
</linearGradient>
<linearGradient id="paint1_linear_43_2806" x1="8.40015" y1="13.5431" x2="12.1969" y2="25.3667" gradientUnits="userSpaceOnUse">
<stop stop-color="#885EDB" stop-opacity="0"/>
<stop offset="1" stop-color="#E362F8"/>
</linearGradient>
<linearGradient id="paint2_linear_43_2806" x1="6.6697" y1="7.4773" x2="10.0333" y2="12.8485" gradientUnits="userSpaceOnUse">
<stop offset="0.125" stop-color="#9C6CFE"/>
<stop offset="1" stop-color="#7A41DC"/>
</linearGradient>
<radialGradient id="paint3_radial_43_2806" cx="0" cy="0" r="1" gradientUnits="userSpaceOnUse" gradientTransform="translate(9.78492 -0.556898) rotate(49.594) scale(17.7652 31.996)">
<stop stop-color="#FAB500"/>
<stop offset="0.535" stop-color="#FE8401"/>
<stop offset="1" stop-color="#FB5937"/>
</radialGradient>
</defs>
</svg>
