<svg width="32" height="33" viewBox="0 0 32 33" fill="none" xmlns="http://www.w3.org/2000/svg">
<g clip-path="url(#clip0_43_2543)">
<path d="M16 0.5C11.7575 0.5 7.685 2.18675 4.6875 5.18625C1.68693 8.18696 0.000858621 12.2565 0 16.5C0 20.7417 1.6875 24.8142 4.6875 27.8137C7.685 30.8132 11.7575 32.5 16 32.5C20.2425 32.5 24.315 30.8132 27.3125 27.8137C30.3125 24.8142 32 20.7417 32 16.5C32 12.2583 30.3125 8.18575 27.3125 5.18625C24.315 2.18675 20.2425 0.5 16 0.5Z" fill="url(#paint0_linear_43_2543)"/>
<path d="M7.24213 16.3311C11.9071 14.2991 15.0171 12.9594 16.5721 12.3121C21.0171 10.4638 21.9396 10.1428 22.5421 10.1319C22.6746 10.1298 22.9696 10.1626 23.1621 10.3182C23.3221 10.4494 23.3671 10.6269 23.3896 10.7516C23.4096 10.8761 23.4371 11.1598 23.4146 11.3813C23.1746 13.9113 22.1321 20.0508 21.6021 22.8846C21.3796 24.0836 20.9371 24.4856 20.5096 24.5248C19.5796 24.6103 18.8746 23.9108 17.9746 23.3211C16.5671 22.3978 15.7721 21.8233 14.4046 20.9226C12.8246 19.8816 13.8496 19.3093 14.7496 18.3743C14.9846 18.1296 19.0796 14.4058 19.1571 14.0681C19.1671 14.0258 19.1771 13.8683 19.0821 13.7853C18.9896 13.7021 18.8521 13.7306 18.7521 13.7531C18.6096 13.7851 16.3621 15.2721 12.0021 18.2138C11.3646 18.6523 10.7871 18.8661 10.2671 18.8548C9.69713 18.8426 8.59713 18.5318 7.77963 18.2663C6.77963 17.9406 5.98213 17.7683 6.05213 17.2151C6.08713 16.9271 6.48463 16.6323 7.24213 16.3311Z" fill="white"/>
</g>
<defs>
<linearGradient id="paint0_linear_43_2543" x1="1600" y1="0.5" x2="1600" y2="3200.5" gradientUnits="userSpaceOnUse">
<stop stop-color="#2AABEE"/>
<stop offset="1" stop-color="#229ED9"/>
</linearGradient>
<clipPath id="clip0_43_2543">
<rect width="32" height="32" fill="white" transform="translate(0 0.5)"/>
</clipPath>
</defs>
</svg>
