<svg width="25" height="24" viewBox="0 0 25 24" fill="none" xmlns="http://www.w3.org/2000/svg">
<path d="M12.5 24C19.1274 24 24.5 18.6274 24.5 12C24.5 5.37257 19.1274 0 12.5 0C5.87257 0 0.5 5.37257 0.5 12C0.5 18.6274 5.87257 24 12.5 24Z" fill="#0098EA"/>
<path d="M16.5972 6.69775H8.40218C6.89541 6.69775 5.94042 8.32311 6.69844 9.63707L11.7561 18.4034C12.0861 18.9758 12.9132 18.9758 13.2433 18.4034L18.302 9.63707C19.059 8.32521 18.104 6.69775 16.5982 6.69775H16.5972ZM11.752 15.7745L10.6505 13.6428L7.99277 8.88934C7.81744 8.5851 8.03399 8.19523 8.40115 8.19523H11.751V15.7755L11.752 15.7745ZM17.0046 8.88831L14.3478 13.6438L13.2464 15.7745V8.1942H16.5962C16.9633 8.1942 17.1799 8.58407 17.0046 8.88831Z" fill="white"/>
</svg>
