<svg width="29" height="29" viewBox="0 0 29 29" fill="none" xmlns="http://www.w3.org/2000/svg">
<path d="M4.88281 0.5C2.67656 0.5 0.882812 2.29375 0.882812 4.5V24.5C0.882812 26.7062 2.67656 28.5 4.88281 28.5H24.8828C27.0891 28.5 28.8828 26.7062 28.8828 24.5V4.5C28.8828 2.29375 27.0891 0.5 24.8828 0.5H4.88281ZM23.4516 5.75L16.9641 13.1625L24.5953 23.25H18.6203L13.9453 17.1313L8.58906 23.25H5.62031L12.5578 15.3188L5.23906 5.75H11.3641L15.5953 11.3438L20.4828 5.75H23.4516ZM21.0891 21.475L10.4703 7.43125H8.70156L19.4391 21.475H21.0828H21.0891Z" fill="#150101"/>
</svg>
