<svg width="28" height="29" viewBox="0 0 28 29" fill="none" xmlns="http://www.w3.org/2000/svg">
<path d="M24.8402 9.01906C24.7123 8.53764 24.4602 8.09826 24.1092 7.74492C23.7581 7.39158 23.3203 7.13669 22.8397 7.00579C21.0753 6.52979 14.0003 6.52979 14.0003 6.52979C14.0003 6.52979 6.92522 6.52979 5.16083 7.00579C4.68024 7.13669 4.24248 7.39158 3.89139 7.74492C3.54031 8.09826 3.28822 8.53764 3.16039 9.01906C2.6875 10.7947 2.6875 14.5001 2.6875 14.5001C2.6875 14.5001 2.6875 18.2054 3.16039 19.9815C3.28822 20.4629 3.54031 20.9023 3.89139 21.2556C4.24248 21.6089 4.68024 21.8638 5.16083 21.9947C6.92522 22.4703 14.0003 22.4703 14.0003 22.4703C14.0003 22.4703 21.0753 22.4703 22.8397 21.9947C23.3203 21.8638 23.7581 21.6089 24.1092 21.2556C24.4602 20.9023 24.7123 20.4629 24.8402 19.9815C25.3131 18.2054 25.3131 14.5001 25.3131 14.5001C25.3131 14.5001 25.3131 10.7947 24.8402 9.01906Z" fill="#EA5A47"/>
<path d="M11.6865 17.8635L17.6 14.4996L11.6865 11.1357V17.8635Z" fill="#1C1C1E"/>
<path d="M24.8402 9.01906C24.7123 8.53764 24.4602 8.09826 24.1092 7.74492C23.7581 7.39158 23.3203 7.13669 22.8397 7.00579C21.0753 6.52979 14.0003 6.52979 14.0003 6.52979C14.0003 6.52979 6.92522 6.52979 5.16083 7.00579C4.68024 7.13669 4.24248 7.39158 3.89139 7.74492C3.54031 8.09826 3.28822 8.53764 3.16039 9.01906C2.6875 10.7947 2.6875 14.5001 2.6875 14.5001C2.6875 14.5001 2.6875 18.2054 3.16039 19.9815C3.28822 20.4629 3.54031 20.9023 3.89139 21.2556C4.24248 21.6089 4.68024 21.8638 5.16083 21.9947C6.92522 22.4703 14.0003 22.4703 14.0003 22.4703C14.0003 22.4703 21.0753 22.4703 22.8397 21.9947C23.3203 21.8638 23.7581 21.6089 24.1092 21.2556C24.4602 20.9023 24.7123 20.4629 24.8402 19.9815C25.3131 18.2054 25.3131 14.5001 25.3131 14.5001C25.3131 14.5001 25.3131 10.7947 24.8402 9.01906Z" stroke="black" stroke-width="0.777778" stroke-miterlimit="10"/>
<path d="M11.6865 17.8635L17.6 14.4996L11.6865 11.1357V17.8635Z" stroke="black" stroke-width="0.777778" stroke-miterlimit="10" stroke-linecap="round" stroke-linejoin="round"/>
</svg>
