<svg width="16" height="16" viewBox="0 0 16 16" fill="none" xmlns="http://www.w3.org/2000/svg">
<path d="M4.33337 4.14384V2.60384C4.33346 2.35521 4.43229 2.1168 4.60813 1.94102C4.78396 1.76525 5.02241 1.6665 5.27104 1.6665H13.3957C13.6444 1.6665 13.8829 1.76529 14.0587 1.94114C14.2346 2.11699 14.3334 2.35549 14.3334 2.60417V10.7292C14.3333 10.9777 14.2345 11.2161 14.0587 11.3919C13.883 11.5676 13.6446 11.6664 13.396 11.6665H11.8387" stroke="#AEBEE0" stroke-width="1.33333" stroke-linecap="round" stroke-linejoin="round"/>
<path d="M10.7294 4.3335H2.6037C2.35513 4.33367 2.11681 4.43254 1.9411 4.60837C1.7654 4.7842 1.6667 5.02259 1.6667 5.27116V13.3958C1.6667 13.6445 1.76549 13.883 1.94134 14.0589C2.11719 14.2347 2.35568 14.3335 2.60437 14.3335H10.7294C10.9779 14.3334 11.2163 14.2346 11.3921 14.0589C11.5678 13.8831 11.6666 13.6447 11.6667 13.3962V5.2705C11.6665 5.02198 11.5677 4.78371 11.3919 4.60801C11.2162 4.43232 10.9779 4.33358 10.7294 4.3335Z" stroke="#AEBEE0" stroke-width="1.33333" stroke-linejoin="round"/>
</svg>
