<svg width="26" height="26" viewBox="0 0 26 26" fill="none" xmlns="http://www.w3.org/2000/svg">
<g clip-path="url(#clip0_48_5692)">
<rect x="7.625" y="21.625" width="11.25" height="1.25" rx="0.625" fill="url(#paint0_radial_48_5692)" stroke="#FBC000" stroke-width="0.25"/>
<path d="M11.5 19.5C12.1 18.9 12 17.1667 12 16.5H14.5C14.5 17.25 14.3675 18.8675 15 19.5C15.75 20.25 16.75 20.4167 17 20.5V21.5H9.5V20.5C9.83333 20.3333 10.9 20.1 11.5 19.5Z" fill="url(#paint1_radial_48_5692)" stroke="#FBC000" stroke-width="0.25"/>
<path d="M24.75 4.5H21.5V6H23.25C23.3333 6.41667 23.4 7.55 23 8.75C22.6 9.95 20.5 10.9167 19.5 11.25L19 12.5C20 12.3333 22.35 11.65 23.75 10.25C25.15 8.85 25 5.83333 24.75 4.5Z" fill="url(#paint2_radial_48_5692)" stroke="#FBC000" stroke-width="0.25"/>
<path d="M1.16406 4.5H4.41406V6H2.66406C2.58073 6.41667 2.51406 7.55 2.91406 8.75C3.31406 9.95 5.41406 10.9167 6.41406 11.25L6.91406 12.5C5.91406 12.3333 3.56406 11.65 2.16406 10.25C0.764062 8.85 0.914062 5.83333 1.16406 4.5Z" fill="url(#paint3_radial_48_5692)" stroke="#FBC000" stroke-width="0.25"/>
<mask id="path-5-inside-1_48_5692" fill="white">
<path d="M22.5 3C22.5 4.83851 22.2607 6.65901 21.7959 8.35757C21.331 10.0561 20.6497 11.5995 19.7907 12.8995C18.9318 14.1995 17.9121 15.2307 16.7898 15.9343C15.6676 16.6379 14.4647 17 13.25 17C12.0353 17 10.8324 16.6379 9.71018 15.9343C8.58792 15.2307 7.5682 14.1995 6.70926 12.8995C5.85032 11.5995 5.16897 10.0561 4.70411 8.35757C4.23926 6.65901 4 4.8385 4 3L13.25 3H22.5Z"/>
</mask>
<path d="M22.5 3C22.5 4.83851 22.2607 6.65901 21.7959 8.35757C21.331 10.0561 20.6497 11.5995 19.7907 12.8995C18.9318 14.1995 17.9121 15.2307 16.7898 15.9343C15.6676 16.6379 14.4647 17 13.25 17C12.0353 17 10.8324 16.6379 9.71018 15.9343C8.58792 15.2307 7.5682 14.1995 6.70926 12.8995C5.85032 11.5995 5.16897 10.0561 4.70411 8.35757C4.23926 6.65901 4 4.8385 4 3L13.25 3H22.5Z" fill="url(#paint4_radial_48_5692)" stroke="#FBC000" stroke-width="0.5" mask="url(#path-5-inside-1_48_5692)"/>
</g>
<defs>
<radialGradient id="paint0_radial_48_5692" cx="0" cy="0" r="1" gradientUnits="userSpaceOnUse" gradientTransform="translate(4.08108 21.9554) rotate(6.51944) scale(9.20064 2.63519)">
<stop offset="0.0214383" stop-color="#FFEE00"/>
<stop offset="0.6875" stop-color="#FFAA00"/>
<stop offset="0.734375" stop-color="#F0DCBB"/>
<stop offset="0.786458" stop-color="#FFB700"/>
<stop offset="1" stop-color="#FFAA00"/>
</radialGradient>
<radialGradient id="paint1_radial_48_5692" cx="0" cy="0" r="1" gradientUnits="userSpaceOnUse" gradientTransform="translate(7.27027 18.0179) rotate(30.2889) scale(6.90407 7.63425)">
<stop offset="0.0214383" stop-color="#FFEE00"/>
<stop offset="0.6875" stop-color="#FFAA00"/>
<stop offset="0.734375" stop-color="#F0DCBB"/>
<stop offset="0.786458" stop-color="#FFB700"/>
<stop offset="1" stop-color="#FFAA00"/>
</radialGradient>
<radialGradient id="paint2_radial_48_5692" cx="0" cy="0" r="1" gradientUnits="userSpaceOnUse" gradientTransform="translate(17.2419 6.92857) rotate(49.8457) scale(7.28948 9.12189)">
<stop offset="0.0214383" stop-color="#FFEE00"/>
<stop offset="0.6875" stop-color="#FFAA00"/>
<stop offset="0.734375" stop-color="#F0DCBB"/>
<stop offset="0.786458" stop-color="#FFB700"/>
<stop offset="1" stop-color="#FFAA00"/>
</radialGradient>
<radialGradient id="paint3_radial_48_5692" cx="0" cy="0" r="1" gradientUnits="userSpaceOnUse" gradientTransform="translate(8.67216 6.92857) rotate(130.154) scale(7.28948 9.12189)">
<stop offset="0.0214383" stop-color="#FFEE00"/>
<stop offset="0.6875" stop-color="#FFAA00"/>
<stop offset="0.734375" stop-color="#F0DCBB"/>
<stop offset="0.786458" stop-color="#FFB700"/>
<stop offset="1" stop-color="#FFAA00"/>
</radialGradient>
<radialGradient id="paint4_radial_48_5692" cx="0" cy="0" r="1" gradientUnits="userSpaceOnUse" gradientTransform="translate(-1.5 -2.5) rotate(52.9794) scale(24.4233 29.8103)">
<stop offset="0.0214383" stop-color="#FFEE00"/>
<stop offset="0.365269" stop-color="#FFAA00"/>
<stop offset="0.498843" stop-color="#F0DCBB"/>
<stop offset="0.889321" stop-color="#FF9700"/>
<stop offset="1" stop-color="#FFBF00"/>
</radialGradient>
<clipPath id="clip0_48_5692">
<rect width="26" height="26" fill="white"/>
</clipPath>
</defs>
</svg>
