<svg width="139" height="139" viewBox="0 0 139 139" fill="none" xmlns="http://www.w3.org/2000/svg">
<g clip-path="url(#clip0_78_2118)">
<path d="M139 69.5C139 107.884 107.884 139 69.5 139C31.1162 139 0 107.884 0 69.5C0 31.1162 31.1162 0 69.5 0C107.884 0 139 31.1162 139 69.5ZM18.3772 69.5C18.3772 97.7343 41.2657 120.623 69.5 120.623C97.7343 120.623 120.623 97.7343 120.623 69.5C120.623 41.2657 97.7343 18.3772 69.5 18.3772C41.2657 18.3772 18.3772 41.2657 18.3772 69.5Z" fill="#63BDC9" fill-opacity="0.2"/>
<path d="M139 69.5C139 107.884 107.996 139 69.7506 139C31.5053 139 0.501465 107.884 0.501465 69.5C0.501465 31.1162 31.5053 0 69.7506 0C107.996 0 139 31.1162 139 69.5ZM18.398 69.5C18.398 97.964 41.3893 121.039 69.7506 121.039C98.1118 121.039 121.103 97.964 121.103 69.5C121.103 41.036 98.1118 17.9613 69.7506 17.9613C41.3893 17.9613 18.398 41.036 18.398 69.5Z" fill="url(#paint0_linear_78_2118)"/>
<path d="M37.1149 75.784V71.488H32.8189V69.22H37.1149V64.936H39.3829V69.22H43.6549V71.488H39.3829V75.784H37.1149ZM49.7698 79V64.876L46.5298 66.856V63.664L49.7698 61.72H52.7218V79H49.7698ZM64.4693 79V76.144H56.8133V73.444L62.3453 61.72H65.6453L60.1133 73.444H64.4693V68.944H67.3973V73.444H69.0173V76.144H67.3973V79H64.4693ZM78.1108 79.36C76.8868 79.36 75.8068 79.1 74.8708 78.58C73.9348 78.052 73.2028 77.32 72.6748 76.384C72.1548 75.448 71.8948 74.368 71.8948 73.144V67.576C71.8948 66.352 72.1548 65.272 72.6748 64.336C73.2028 63.4 73.9348 62.672 74.8708 62.152C75.8068 61.624 76.8868 61.36 78.1108 61.36C79.3348 61.36 80.4108 61.624 81.3388 62.152C82.2748 62.672 83.0068 63.4 83.5348 64.336C84.0628 65.272 84.3268 66.352 84.3268 67.576V73.144C84.3268 74.368 84.0628 75.448 83.5348 76.384C83.0068 77.32 82.2748 78.052 81.3388 78.58C80.4108 79.1 79.3348 79.36 78.1108 79.36ZM78.1108 76.612C78.7188 76.612 79.2708 76.468 79.7668 76.18C80.2628 75.884 80.6548 75.492 80.9428 75.004C81.2308 74.508 81.3748 73.956 81.3748 73.348V67.36C81.3748 66.744 81.2308 66.192 80.9428 65.704C80.6548 65.208 80.2628 64.816 79.7668 64.528C79.2708 64.232 78.7188 64.084 78.1108 64.084C77.5028 64.084 76.9508 64.232 76.4548 64.528C75.9588 64.816 75.5668 65.208 75.2788 65.704C74.9908 66.192 74.8468 66.744 74.8468 67.36V73.348C74.8468 73.956 74.9908 74.508 75.2788 75.004C75.5668 75.492 75.9588 75.884 76.4548 76.18C76.9508 76.468 77.5028 76.612 78.1108 76.612ZM90.0917 79L88.1717 77.08L103.544 61.72L105.464 63.652L90.0917 79ZM101.864 79.36C101.072 79.36 100.348 79.168 99.6917 78.784C99.0437 78.392 98.5237 77.872 98.1317 77.224C97.7397 76.568 97.5437 75.84 97.5437 75.04C97.5437 74.256 97.7437 73.536 98.1437 72.88C98.5437 72.224 99.0717 71.7 99.7277 71.308C100.384 70.916 101.096 70.72 101.864 70.72C102.656 70.72 103.38 70.916 104.036 71.308C104.692 71.692 105.212 72.212 105.596 72.868C105.988 73.516 106.184 74.24 106.184 75.04C106.184 75.84 105.988 76.568 105.596 77.224C105.212 77.872 104.692 78.392 104.036 78.784C103.38 79.168 102.656 79.36 101.864 79.36ZM101.864 76.888C102.192 76.888 102.496 76.804 102.776 76.636C103.064 76.468 103.292 76.244 103.46 75.964C103.628 75.684 103.712 75.376 103.712 75.04C103.712 74.704 103.628 74.396 103.46 74.116C103.292 73.836 103.064 73.612 102.776 73.444C102.496 73.276 102.192 73.192 101.864 73.192C101.528 73.192 101.22 73.276 100.94 73.444C100.66 73.612 100.432 73.836 100.256 74.116C100.088 74.396 100.004 74.704 100.004 75.04C100.004 75.376 100.088 75.684 100.256 75.964C100.432 76.244 100.66 76.468 100.94 76.636C101.22 76.804 101.528 76.888 101.864 76.888ZM91.7717 70C90.9797 70 90.2557 69.808 89.5997 69.424C88.9437 69.032 88.4197 68.512 88.0277 67.864C87.6437 67.208 87.4517 66.48 87.4517 65.68C87.4517 64.896 87.6517 64.176 88.0517 63.52C88.4517 62.864 88.9797 62.34 89.6357 61.948C90.2917 61.556 91.0037 61.36 91.7717 61.36C92.5637 61.36 93.2837 61.556 93.9317 61.948C94.5877 62.332 95.1117 62.852 95.5037 63.508C95.8957 64.156 96.0917 64.88 96.0917 65.68C96.0917 66.48 95.8957 67.208 95.5037 67.864C95.1117 68.512 94.5877 69.032 93.9317 69.424C93.2837 69.808 92.5637 70 91.7717 70ZM91.7717 67.528C92.1077 67.528 92.4157 67.444 92.6957 67.276C92.9757 67.108 93.1997 66.884 93.3677 66.604C93.5357 66.324 93.6197 66.016 93.6197 65.68C93.6197 65.344 93.5357 65.036 93.3677 64.756C93.1997 64.476 92.9757 64.252 92.6957 64.084C92.4157 63.916 92.1077 63.832 91.7717 63.832C91.4357 63.832 91.1277 63.916 90.8477 64.084C90.5677 64.252 90.3437 64.476 90.1757 64.756C90.0077 65.036 89.9237 65.344 89.9237 65.68C89.9237 66.016 90.0077 66.324 90.1757 66.604C90.3437 66.884 90.5677 67.108 90.8477 67.276C91.1277 67.444 91.4357 67.528 91.7717 67.528Z" fill="white"/>
</g>
<defs>
<linearGradient id="paint0_linear_78_2118" x1="116.94" y1="69.5" x2="26.1634" y2="108.148" gradientUnits="userSpaceOnUse">
<stop offset="0.105" stop-color="#3045FF"/>
<stop offset="0.345" stop-color="#12B8FF"/>
<stop offset="0.88" stop-color="#01FA75"/>
</linearGradient>
<clipPath id="clip0_78_2118">
<rect width="139" height="139" fill="white"/>
</clipPath>
</defs>
</svg>
