<svg width="36" height="36" viewBox="0 0 36 36" fill="none" xmlns="http://www.w3.org/2000/svg">
<rect width="36" height="36" rx="18" fill="#111118"/>
<path fill-rule="evenodd" clip-rule="evenodd" d="M27.0996 14.0042C27.043 14.0008 26.9826 13.9995 26.9186 14.0002H24.3936C22.3256 14.0002 20.5566 15.6282 20.5566 17.7502C20.5566 19.8722 22.3266 21.5002 24.3936 21.5002H26.9186C26.9826 21.5008 27.0433 21.4995 27.1006 21.4962C27.5257 21.4705 27.9269 21.2913 28.2295 20.9917C28.5322 20.6922 28.7156 20.2929 28.7456 19.8682C28.7496 19.8082 28.7496 19.7432 28.7496 19.6832V15.8172C28.7496 15.7572 28.7496 15.6922 28.7456 15.6322C28.7156 15.2074 28.5322 14.8081 28.2295 14.5086C27.9269 14.2091 27.5247 14.0298 27.0996 14.0042ZM24.1726 18.7502C24.7046 18.7502 25.1356 18.3022 25.1356 17.7502C25.1356 17.1982 24.7046 16.7502 24.1726 16.7502C23.6396 16.7502 23.2086 17.1982 23.2086 17.7502C23.2086 18.3022 23.6396 18.7502 24.1726 18.7502Z" fill="#FFDE45"/>
<path fill-rule="evenodd" clip-rule="evenodd" d="M26.918 23C26.9526 22.9986 26.987 23.0054 27.0184 23.0198C27.0499 23.0342 27.0775 23.0558 27.099 23.0829C27.1206 23.11 27.1354 23.1418 27.1424 23.1757C27.1493 23.2096 27.1481 23.2446 27.139 23.278C26.939 23.99 26.62 24.598 26.109 25.108C25.36 25.858 24.411 26.189 23.239 26.347C22.099 26.5 20.644 26.5 18.806 26.5H16.694C14.856 26.5 13.4 26.5 12.261 26.347C11.089 26.189 10.14 25.857 9.391 25.109C8.643 24.36 8.311 23.411 8.153 22.239C8 21.099 8 19.644 8 17.806V17.694C8 15.856 8 14.4 8.153 13.26C8.311 12.088 8.643 11.139 9.391 10.39C10.14 9.642 11.089 9.31 12.261 9.152C13.401 9 14.856 9 16.694 9H18.806C20.644 9 22.1 9 23.239 9.153C24.411 9.311 25.36 9.643 26.109 10.391C26.62 10.903 26.939 11.51 27.139 12.222C27.1481 12.2554 27.1493 12.2904 27.1424 12.3243C27.1354 12.3582 27.1206 12.39 27.099 12.4171C27.0775 12.4442 27.0499 12.4658 27.0184 12.4802C26.987 12.4946 26.9526 12.5014 26.918 12.5H24.394C21.557 12.5 19.057 14.74 19.057 17.75C19.057 20.76 21.557 23 24.394 23H26.918ZM11.75 13C11.5511 13 11.3603 13.079 11.2197 13.2197C11.079 13.3603 11 13.5511 11 13.75C11 13.9489 11.079 14.1397 11.2197 14.2803C11.3603 14.421 11.5511 14.5 11.75 14.5H15.75C15.9489 14.5 16.1397 14.421 16.2803 14.2803C16.421 14.1397 16.5 13.9489 16.5 13.75C16.5 13.5511 16.421 13.3603 16.2803 13.2197C16.1397 13.079 15.9489 13 15.75 13H11.75Z" fill="#FFDE45"/>
</svg>
