<svg width="24" height="24" viewBox="0 0 24 24" fill="none" xmlns="http://www.w3.org/2000/svg">
<path d="M13.4494 0.0812217C13.2469 0.261222 11.6719 3.38685 11.6719 3.38685L10.5 8.11372L15.06 7.6956C15.06 7.6956 18.8531 0.641847 18.93 0.478722C19.0669 0.182472 19.14 0.0605967 18.6169 0.0605967C18.0938 0.0587217 13.6387 -0.0875283 13.4494 0.0812217Z" fill="#6E3EFE"/>
<path d="M15.3148 8.11702C15.0879 7.99515 8.40542 7.89015 8.24792 8.11702C8.10542 8.32327 8.18605 9.40515 8.24042 9.53452C8.33792 9.75952 10.496 10.7401 10.496 10.7401L10.4548 11.1864C10.4548 11.1864 10.631 11.2314 11.8854 11.2314C13.1398 11.2314 13.3873 11.1676 13.3873 11.1676L13.391 10.7645C13.391 10.7645 15.3335 9.81952 15.431 9.68827C15.5135 9.57952 15.5417 8.2389 15.3148 8.11702ZM13.3254 9.82702C13.3254 9.82702 13.3873 9.5514 13.2579 9.48765C13.1285 9.42202 10.9085 9.45202 10.7323 9.4614C10.556 9.47077 10.556 9.78577 10.556 9.78577L9.1573 9.06577L9.13105 8.79765L14.4373 8.83515L14.4185 9.08827L13.3254 9.82702Z" fill="#F79429"/>
<path d="M11.1115 9.72949C10.9352 9.72949 10.834 9.91324 10.834 10.2301C10.834 10.5264 10.9352 10.7757 11.1584 10.757C11.3421 10.742 11.4059 10.4607 11.389 10.2114C11.3721 9.91324 11.3346 9.72949 11.1115 9.72949Z" fill="#FDFFFF"/>
<path d="M5.49609 17.2665C5.49609 21.759 9.56672 23.6284 12.2686 23.5478C15.4167 23.454 18.803 21.0653 18.5236 16.779C18.2611 12.7572 14.8748 10.9122 11.9161 10.9328C8.47734 10.959 5.49609 13.3422 5.49609 17.2665Z" fill="#F79429"/>
<path d="M12.1258 22.8696C12.0789 22.8696 12.0302 22.8695 11.9833 22.8677C10.5771 22.8208 9.18769 22.2283 8.17144 21.2439C7.08394 20.1902 6.48769 18.7652 6.49519 17.2333C6.51206 13.4927 9.78206 11.7583 12.0002 11.7583H12.0189C15.0246 11.7714 17.4921 14.1077 17.5614 17.2745C17.5914 18.6845 17.1414 20.0871 16.0089 21.2008C14.9514 22.2358 13.4214 22.8696 12.1258 22.8696ZM11.9964 12.3808C10.0071 12.3808 7.06519 14.0083 7.05769 17.2333C7.05206 19.6446 8.91956 22.1233 12.0302 22.2283C13.2152 22.2658 14.5521 21.8271 15.5364 20.8596C16.5602 19.8527 17.0196 18.5402 16.9989 17.2839C16.9539 14.5596 14.7264 12.3921 12.0227 12.3808C12.0171 12.3771 12.0021 12.3808 11.9964 12.3808Z" fill="#D25116"/>
<path d="M10.8921 11.5256C10.7627 11.3475 9.43709 11.3981 8.01021 12.6262C6.59271 13.8469 6.38084 15.1969 6.63584 15.2681C6.92646 15.3487 7.28084 14.0437 8.50521 12.9469C9.63021 11.9437 11.149 11.88 10.8921 11.5256ZM16.5902 16.4325C16.1383 16.4962 16.6071 17.85 15.559 19.365C14.6496 20.6794 13.6183 21.1556 13.7383 21.4444C13.8996 21.8306 15.5515 20.8687 16.3165 19.3012C17.0083 17.8819 16.9258 16.3837 16.5902 16.4325Z" fill="#FEFFFA"/>
<path d="M4.78353 0.697578C4.6654 0.806328 9.18228 8.85008 9.18228 8.85008C9.18228 8.85008 9.93978 8.94758 11.631 8.96258C13.3223 8.97758 14.1604 8.86508 14.1604 8.86508C14.1604 8.86508 10.6485 0.778203 10.4385 0.697578C10.3354 0.656328 8.94415 0.641328 7.58478 0.626328C6.22353 0.609453 4.89603 0.592578 4.78353 0.697578Z" fill="#B67FFF"/>
<path d="M6.75 0.75H8.25L12 9H10.5L6.75 0.75Z" fill="#FFDE45"/>
<path d="M14.053 15.6955C13.8355 13.8111 11.6417 13.6536 10.7323 14.3774C9.84733 15.0824 9.9317 16.0649 10.5523 16.1792C11.0417 16.2692 11.1692 15.8811 11.3117 15.703C11.6342 15.3036 12.148 15.2661 12.4836 15.5867C12.8642 15.9524 12.6298 16.8261 12.058 16.8617C11.6323 16.888 11.4167 16.8655 11.3623 16.9386C11.2855 17.0417 11.2967 17.8536 11.3755 17.9436C11.4655 18.0467 11.8255 17.983 12.1348 17.9942C12.5605 18.0111 13.0123 18.6411 12.7142 19.1136C12.4048 19.603 11.5817 19.3836 11.2855 19.0874C10.8936 18.6955 10.5017 18.9205 10.3705 19.0742C10.1642 19.318 9.94483 19.873 10.7061 20.413C11.4655 20.953 13.7698 21.0561 14.2348 19.3836C14.6398 17.923 13.6948 17.323 13.6948 17.323C13.6948 17.323 14.1767 16.7699 14.053 15.6955Z" fill="#D25116"/>
</svg>
