<svg width="24" height="24" viewBox="0 0 24 24" fill="none" xmlns="http://www.w3.org/2000/svg">
<path d="M12.9543 0.795089C12.7518 0.975089 11.1768 4.10071 11.1768 4.10071L10.0049 8.82759L14.5649 8.40946C14.5649 8.40946 18.358 1.35571 18.4349 1.19259C18.5718 0.896339 18.6449 0.774464 18.1218 0.774464C17.5986 0.772589 13.1436 0.626339 12.9543 0.795089Z" fill="#6E3EFE"/>
<path d="M15.3146 8.11702C15.0878 7.99515 8.40526 7.89015 8.24776 8.11702C8.10526 8.32327 8.12589 9.2664 8.19526 9.38827C8.26464 9.51015 10.5109 10.5545 10.5109 10.5545L10.509 10.9351C10.509 10.9351 10.6328 11.2333 11.8853 11.2333C13.1378 11.2333 13.2671 10.9801 13.2671 10.9801L13.2784 10.5958C13.2784 10.5958 15.2453 9.61327 15.3484 9.52702C15.4534 9.4389 15.5415 8.2389 15.3146 8.11702ZM13.2559 9.6789C13.2559 9.6789 13.2503 9.4164 13.1209 9.35077C12.9915 9.28515 10.9084 9.2964 10.7321 9.30577C10.5559 9.31515 10.5559 9.63015 10.5559 9.63015L9.13089 8.9364V8.79765L14.4371 8.83515L14.4465 8.99265L13.2559 9.6789Z" fill="#FCC417"/>
<path d="M11.1115 9.59424C10.9352 9.59424 10.834 9.77799 10.834 10.0949C10.834 10.3911 10.9352 10.6405 11.1584 10.6217C11.3421 10.6067 11.4059 10.3255 11.389 10.0761C11.3721 9.77986 11.3346 9.59424 11.1115 9.59424Z" fill="#FDFFFF"/>
<path d="M5.43359 17.0099C5.43359 21.5024 9.49484 23.503 12.1948 23.4074C15.1723 23.3005 18.7386 20.9792 18.523 16.693C18.3186 12.6317 14.9023 10.7061 11.9436 10.7267C8.50484 10.7511 5.43359 13.0855 5.43359 17.0099Z" fill="#FCC417"/>
<path d="M12.0994 22.6259C12.0526 22.6259 12.0038 22.6259 11.9569 22.624C10.5507 22.5771 9.16132 21.9846 8.14507 21.0003C7.05757 19.9465 6.46132 18.5215 6.46882 16.9896C6.48569 13.249 9.75569 11.5146 11.9738 11.5146H11.9926C14.9982 11.5278 17.4657 13.864 17.5351 17.0309C17.5651 18.4409 16.9876 19.9203 15.8551 21.034C14.7976 22.0709 13.3951 22.6259 12.0994 22.6259ZM11.9701 12.1371C9.98069 12.1371 7.03882 13.7646 7.03132 16.9896C7.02569 19.4009 8.89319 21.8796 12.0038 21.9846C13.1888 22.0221 14.4094 21.5684 15.3957 20.599C16.4194 19.5921 16.9951 18.2946 16.9744 17.0384C16.9294 14.314 14.7019 12.1465 11.9982 12.1353C11.9907 12.1353 11.9757 12.1371 11.9701 12.1371Z" fill="#FA912C"/>
<path d="M10.841 11.3642C10.7116 11.186 9.24539 11.2198 7.85976 12.5735C6.52289 13.8804 6.37851 15.1123 6.63539 15.1835C6.92601 15.2642 7.28039 13.9592 8.50477 12.8623C9.62977 11.8573 11.0998 11.7185 10.841 11.3642ZM16.5129 16.2148C16.061 16.2785 16.5298 17.6323 15.4816 19.1473C14.5723 20.4617 13.541 20.9379 13.661 21.2267C13.8223 21.6129 15.4741 20.651 16.2391 19.0835C16.9329 17.6642 16.8504 16.166 16.5129 16.2148Z" fill="#FEFFFA"/>
<path d="M10.4714 14.4412C10.3739 14.5856 10.462 15.8512 10.5201 15.9075C10.6326 16.02 11.4876 15.6168 11.4876 15.6168L11.4558 19.0012C11.4558 19.0012 10.8276 18.9937 10.762 19.0181C10.6326 19.0668 10.6495 20.3718 10.7451 20.4356C10.8408 20.4993 13.4039 20.5331 13.5014 20.4037C13.5989 20.2743 13.5745 19.1325 13.5295 19.08C13.4489 18.9825 12.8358 19.0218 12.8358 19.0218C12.8358 19.0218 12.8883 14.0381 12.8714 13.8787C12.8545 13.7193 12.6783 13.62 12.4683 13.6687C12.2583 13.7175 10.5333 14.3475 10.4714 14.4412Z" fill="#FA912C"/>
<path d="M4.78353 0.697578C4.6654 0.806328 9.18228 8.85008 9.18228 8.85008C9.18228 8.85008 9.93978 8.94758 11.631 8.96258C13.3223 8.97758 14.1604 8.86508 14.1604 8.86508C14.1604 8.86508 10.6485 0.778203 10.4385 0.697578C10.3354 0.656328 8.94415 0.641328 7.58478 0.626328C6.22353 0.609453 4.89603 0.592578 4.78353 0.697578Z" fill="#B67FFF"/>
<path d="M6.75 0.75H8.25L12 9H10.5L6.75 0.75Z" fill="#FFDE45"/>
</svg>
