<svg width="24" height="24" viewBox="0 0 24 24" fill="none" xmlns="http://www.w3.org/2000/svg">
<path d="M12.9543 0.795089C12.7518 0.975089 11.1768 4.10071 11.1768 4.10071L10.0049 8.82759L14.5649 8.40946C14.5649 8.40946 18.358 1.35571 18.4349 1.19259C18.5718 0.896339 18.6449 0.774464 18.1218 0.774464C17.5986 0.772589 13.1436 0.626339 12.9543 0.795089Z" fill="#6E3EFE"/>
<path d="M15.3148 8.11702C15.0879 7.99515 8.40542 7.89015 8.24792 8.11702C8.10542 8.32327 8.18605 9.40515 8.24042 9.53452C8.33792 9.75952 10.496 10.7401 10.496 10.7401L10.4548 11.1864C10.4548 11.1864 10.631 11.2314 11.8854 11.2314C13.1398 11.2314 13.3873 11.1676 13.3873 11.1676L13.391 10.7645C13.391 10.7645 15.3335 9.81952 15.431 9.68827C15.5135 9.57952 15.5417 8.2389 15.3148 8.11702ZM13.3254 9.82702C13.3254 9.82702 13.3873 9.5514 13.2579 9.48765C13.1285 9.42202 10.9085 9.45202 10.7323 9.4614C10.556 9.47077 10.556 9.78577 10.556 9.78577L9.13105 8.9364V8.79765L14.4373 8.83515L14.4467 8.99265L13.3254 9.82702Z" fill="#CECDD2"/>
<path d="M11.1115 9.59424C10.9352 9.59424 10.834 9.77799 10.834 10.0949C10.834 10.3911 10.9352 10.6405 11.1584 10.6217C11.3421 10.6067 11.4059 10.3255 11.389 10.0761C11.3721 9.77986 11.3346 9.59424 11.1115 9.59424Z" fill="#FDFFFF"/>
<path d="M5.43164 17.229C5.43164 21.7215 9.56602 23.6284 12.2679 23.5478C15.416 23.454 18.7385 21.0653 18.5229 16.779C18.3185 12.7178 14.8741 10.9122 11.9154 10.9328C8.47664 10.959 5.43164 13.3047 5.43164 17.229Z" fill="#CECDD2"/>
<path d="M12.0994 22.7118C12.0526 22.7118 12.0038 22.7118 11.9569 22.71C10.5507 22.6631 9.16132 22.0706 8.14507 21.0862C7.05757 20.0325 6.46132 18.6075 6.46882 17.0756C6.48569 13.335 9.75569 11.6006 11.9738 11.6006H11.9926C14.9982 11.6137 17.4657 13.95 17.5351 17.1168C17.5651 18.5268 16.9876 20.0062 15.8551 21.12C14.7976 22.1568 13.3951 22.7118 12.0994 22.7118ZM11.9701 12.2231C9.98069 12.2231 7.03882 13.8506 7.03132 17.0756C7.02569 19.4868 8.89319 21.9656 12.0038 22.0706C13.1888 22.1081 14.4094 21.6543 15.3957 20.685C16.4194 19.6781 16.9951 18.3806 16.9744 17.1243C16.9257 14.4 14.6982 12.2325 11.9944 12.2193C11.9907 12.2193 11.9757 12.2231 11.9701 12.2231Z" fill="#9B9B9D"/>
<path d="M10.8921 11.5256C10.7627 11.3475 9.43709 11.3981 8.01021 12.6262C6.59271 13.8469 6.38084 15.1969 6.63584 15.2681C6.92646 15.3487 7.28084 14.0437 8.50521 12.9469C9.63021 11.9437 11.149 11.88 10.8921 11.5256ZM16.4777 16.4475C16.0258 16.5112 16.4946 17.865 15.4465 19.38C14.5371 20.6944 13.5058 21.1706 13.6258 21.4594C13.7871 21.8456 15.439 20.8837 16.204 19.3162C16.8958 17.8987 16.8133 16.4006 16.4777 16.4475Z" fill="#FEFFFA"/>
<path d="M4.78353 0.697578C4.6654 0.806328 9.18228 8.85008 9.18228 8.85008C9.18228 8.85008 9.93978 8.94758 11.631 8.96258C13.3223 8.97758 14.1604 8.86508 14.1604 8.86508C14.1604 8.86508 10.6485 0.778203 10.4385 0.697578C10.3354 0.656328 8.94415 0.641328 7.58478 0.626328C6.22353 0.609453 4.89603 0.592578 4.78353 0.697578Z" fill="#B67FFF"/>
<path d="M6.75 0.75H8.25L12 9H10.5L6.75 0.75Z" fill="#FFDE45"/>
<path d="M10.6594 16.1904C10.8544 16.1923 11.0287 15.9279 11.19 15.7666C11.5331 15.4216 11.8931 15.1479 12.3037 15.5191C13.3125 16.436 11.2875 17.366 10.5187 18.6373C9.94498 19.586 9.82873 20.3154 9.9881 20.5104C10.1475 20.7054 14.0269 20.696 14.0794 20.5985C14.1319 20.501 14.1862 19.2016 14.0962 19.1398C14.0062 19.0779 12.0994 19.1135 12.0994 19.1135C12.0994 19.1135 12.2587 18.7423 12.9131 18.176C13.6312 17.5554 14.2069 16.7023 14.0531 15.6935C13.7344 13.6085 11.6344 13.5316 10.725 14.2573C9.8381 14.9641 10.0294 16.1829 10.6594 16.1904Z" fill="#9B9B9D"/>
</svg>
